<svg enable-background="new 0 0 631.87 924.71" viewBox="0 0 631.87 924.71" xmlns="http://www.w3.org/2000/svg"><path d="m509.2 776.03c24.74 15.36 70.12 61.76 32.93 84.28-35.66 32.76-55.79-36-87.18-45.38 12.17-19.68 31.7-33.68 54.25-38.9z" fill="#f6d2a2" stroke="#000" stroke-miterlimit="10" stroke-width="2"/><path d="m227.15 836.6c-27.73 4.22-43.3 29.19-66.32 41.84-8.16 7.53-20.88 7.02-28.41-1.14-1.74-1.89-3.1-4.09-4.02-6.49-3.26.08-6.38-1.36-8.43-3.89-20.11-32.43 20.92-54.97 42.49-70.86 30.32-5.84 48.96 19.94 64.69 40.54z" fill="#f6d2a2" stroke="#000" stroke-miterlimit="10" stroke-width="2"/><path d="m488.5 87.14c88.67-57.29 170.22 82.61 60.63 112.92z" fill="#74cddd" stroke="#000" stroke-miterlimit="10" stroke-width="2"/><circle cx="543.82" cy="139.23" r="22.75" stroke="#000" stroke-miterlimit="10" stroke-width="2"/><path d="m82.43 221.91c-112.56-31.14-28.8-174.83 62.27-115.98z" fill="#74cddd" stroke="#000" stroke-miterlimit="10" stroke-width="2"/><circle cx="98.27" cy="161.98" r="25.21" stroke="#000" stroke-miterlimit="10" stroke-width="2"/><path d="m321.12 40.94c94.83 0 183.36 13.1 229.99 104.78 41.52 102.03 26.19 212.18 33.14 319.97 5.5 92.6 17.55 199.61-25.41 285.52-44.92 90.11-158.35 112.51-251.34 109.49-73.08-2.62-161.36-26.19-202.62-93.25-48.46-78.58-25.54-194.89-22-281.99 4.19-103.21-28.03-206.81 5.89-307.92 35.24-104.77 130.06-128.48 232.22-136.6" fill="#74cddd" stroke="#000" stroke-miterlimit="10" stroke-width="2"/><ellipse cx="216.56" cy="190.56" fill="#fff" rx="89.21" ry="83.75" stroke="#000" stroke-miterlimit="10" stroke-width="2"/><ellipse cx="437.63" cy="180.1" fill="#fff" rx="89.21" ry="83.75" stroke="#000" stroke-miterlimit="10" stroke-width="2"/><ellipse cx="437.63" cy="224.05" fill="#010101" rx="25.72" ry="28.37"/><ellipse cx="449.24" cy="230.51" fill="#fff" rx="6.03" ry="7.2"/><ellipse cx="227.15" cy="230.51" fill="#010101" rx="26.16" ry="28.37"/><ellipse cx="239.06" cy="236.98" fill="#fff" rx="6.17" ry="7.2"/><path d="m372.33 306.94c-2.12-2.21-3.05-1.05-16.37-4.17-10.61-2.48-15.91-3.72-17.29-4.6-.64-.41-2.55-1.77-3.72-1.09-1.03.59-.98 2.48-.96 3.42.11 4.29-.15 8.6.08 12.88.03.53.07 4.07.16 11.16.06 4.57.04 4.35.08 7.06.18 12.53.47 14.13.85 15.6.75 2.91 1.6 6.18 4.38 9.19 3.85 4.17 8.85 5.1 12.04 5.69 3.67.68 7.29 1.35 10.94-.44 3.59-1.76 5.17-4.9 7.44-9.41 2.9-5.77 3.84-10.73 4.6-14.88 1.45-7.99 1.19-14.02 1.09-15.76-.44-7.9-.65-11.85-3.32-14.65z" fill="#fff" stroke="#000" stroke-miterlimit="10" stroke-width="2"/><path d="m296.3 306.2c2.12-2.21 3.05-1.05 16.37-4.17 10.61-2.48 15.91-3.72 17.29-4.6.72-.46 2.68-1.78 3.72-1.09.98.64.63 2.73.44 4.16-.56 4.17 0 8.42-.08 12.64-.09 5.03.01 9.08.08 11.65.09 3.28.14 3.12.25 6.57.26 8.25.37 12.43-.41 15.26-.53 1.92-1.6 5.69-4.87 9.03-4.11 4.21-9.13 5.15-12.04 5.69-3.67.68-7.29 1.35-10.94-.44-3.59-1.76-5.17-4.9-7.44-9.41-2.9-5.77-3.84-10.73-4.6-14.88-1.45-7.99-1.19-14.02-1.09-15.76.43-7.9.65-11.85 3.32-14.65z" fill="#fff" stroke="#000" stroke-miterlimit="10" stroke-width="2"/><path d="m268.45 293.03c.16-2.69.62-9.28 5.03-15.54 2.13-3.02 4.46-4.95 5.91-6.13 1.84-1.5 5.85-4.47 11.6-6.35 4.82-1.58 8.69-1.68 12.91-1.75 16.03-.29 22.92-.25 28.01-.44 10.69-.4 10.6-2.14 21.89-2.63 10.52-.45 15.47.53 19.26 1.75 5.21 1.67 8.77 3.96 11.82 5.91 3.2 2.05 9.19 5.96 14.66 13.13 2.94 3.85 4.77 6.08 5.91 9.85 2.32 7.67-.19 14.31-.88 15.98-.79 1.92-3.67 8.22-10.72 12.04-6.3 3.41-12.32 2.89-14.88 2.63-3.31-.33-3.43-.95-14.66-4.81-6.66-2.29-7.09-2.24-12.47-4.16-8.62-3.08-9.14-4.04-12.55-4.87-7.42-1.8-15.52.55-18.38 1.63-6.39 2.4-5.49 4.04-12.89 7.29-3.6 1.58-8.69 3.76-15.32 3.94-4.22.12-10.89.3-16.41-3.94-8.82-6.75-8.07-19.63-7.84-23.53z" fill="#f6d2a2" stroke="#000" stroke-miterlimit="10" stroke-width="2"/><path d="m296.82 269.01c-1.62-36.74 68.64-41.45 76.87-10.58 8.23 30.86-73.49 37.91-76.87 10.58z" fill="#010101"/><path d="m128.4 870.81c0-8.45 5.84-15.28 13.05-15.28" fill="none" stroke="#000" stroke-miterlimit="10" stroke-width="2"/><path d="m542.13 860.31c0-11.51-3.89-20.82-8.69-20.82" fill="none" stroke="#000" stroke-miterlimit="10" stroke-width="2"/><path d="m273.95 640.73c10.07 6.25 28.53 25.13 13.4 34.3-14.51 13.33-22.7-14.65-35.48-18.47 4.96-8.01 12.91-13.71 22.08-15.83z" fill="#f6d2a2" stroke="#000" stroke-miterlimit="10" stroke-width="2"/><path d="m159.19 665.37c-11.28 1.72-17.62 11.88-26.99 17.02-3.32 3.07-8.5 2.86-11.56-.46-.71-.77-1.26-1.66-1.63-2.64-1.33.03-2.59-.55-3.43-1.58-8.18-13.2 8.51-22.37 17.29-28.83 12.33-2.38 19.92 8.11 26.32 16.49z" fill="#f6d2a2" stroke="#000" stroke-miterlimit="10" stroke-width="2"/><path d="m265.53 360.42c36.08-23.31 69.26 33.61 24.67 45.95z" fill="#74cddd" stroke="#000" stroke-miterlimit="10" stroke-width="2"/><circle cx="288.04" cy="381.62" r="9.26" stroke="#000" stroke-miterlimit="10" stroke-width="2"/><path d="m100.3 415.26c-45.8-12.67-11.72-71.14 25.34-47.19z" fill="#74cddd" stroke="#000" stroke-miterlimit="10" stroke-width="2"/><circle cx="106.75" cy="390.88" r="10.26" stroke="#000" stroke-miterlimit="10" stroke-width="2"/><path d="m197.43 341.62c38.58 0 74.61 5.33 93.58 42.63 16.89 41.52 10.66 86.33 13.48 130.2 2.24 37.68 7.14 81.22-10.34 116.18-18.28 36.67-64.43 45.78-102.27 44.55-29.74-1.07-65.66-10.66-82.44-37.94-19.72-31.98-10.39-79.3-8.95-114.74 1.71-41.99-11.4-84.15 2.4-125.29 14.34-42.63 52.92-52.28 94.49-55.58" fill="#74cddd" stroke="#000" stroke-miterlimit="10" stroke-width="2"/><ellipse cx="154.88" cy="402.5" fill="#fff" rx="36.3" ry="34.08" stroke="#000" stroke-miterlimit="10" stroke-width="2"/><ellipse cx="244.83" cy="398.25" fill="#fff" rx="36.3" ry="34.08" stroke="#000" stroke-miterlimit="10" stroke-width="2"/><ellipse cx="244.83" cy="416.13" fill="#010101" rx="10.47" ry="11.54"/><ellipse cx="249.56" cy="418.76" fill="#fff" rx="2.45" ry="2.93"/><ellipse cx="159.19" cy="418.76" fill="#010101" rx="10.65" ry="11.54"/><ellipse cx="164.03" cy="421.39" fill="#fff" rx="2.51" ry="2.93"/><path d="m218.26 449.86c-.86-.9-1.24-.43-6.66-1.7-4.32-1.01-6.47-1.51-7.03-1.87-.26-.17-1.04-.72-1.51-.45-.42.24-.4 1.01-.39 1.39.05 1.75-.06 3.5.03 5.24.01.22.03 1.66.07 4.54.02 1.86.02 1.77.03 2.87.07 5.1.19 5.75.34 6.35.31 1.19.65 2.52 1.78 3.74 1.57 1.7 3.6 2.07 4.9 2.32 1.49.28 2.97.55 4.45-.18 1.46-.72 2.1-1.99 3.03-3.83 1.18-2.35 1.56-4.37 1.87-6.06.59-3.25.48-5.71.45-6.41-.19-3.21-.27-4.82-1.36-5.95z" fill="#fff" stroke="#000" stroke-miterlimit="10" stroke-width="2"/><path d="m187.33 449.56c.86-.9 1.24-.43 6.66-1.7 4.32-1.01 6.47-1.51 7.03-1.87.29-.19 1.09-.72 1.51-.45.4.26.26 1.11.18 1.69-.23 1.7 0 3.43-.03 5.14-.04 2.05.01 3.7.03 4.74.04 1.34.06 1.27.1 2.67.1 3.36.15 5.06-.17 6.21-.21.78-.65 2.31-1.98 3.67-1.67 1.71-3.71 2.1-4.9 2.32-1.49.28-2.97.55-4.45-.18-1.46-.72-2.1-1.99-3.03-3.83-1.18-2.35-1.56-4.37-1.87-6.06-.59-3.25-.48-5.71-.45-6.41.19-3.2.28-4.81 1.37-5.94z" fill="#fff" stroke="#000" stroke-miterlimit="10" stroke-width="2"/><path d="m175.99 444.2c.06-1.09.25-3.78 2.05-6.32.87-1.23 1.81-2.01 2.4-2.49.75-.61 2.38-1.82 4.72-2.58 1.96-.64 3.54-.68 5.25-.71 6.52-.12 9.33-.1 11.4-.18 4.35-.16 4.31-.87 8.9-1.07 4.28-.18 6.29.22 7.84.71 2.12.68 3.57 1.61 4.81 2.4 1.3.83 3.74 2.43 5.97 5.34 1.2 1.57 1.94 2.48 2.4 4.01.95 3.12-.08 5.82-.36 6.5-.32.78-1.49 3.34-4.36 4.9-2.56 1.39-5.01 1.17-6.06 1.07-1.34-.14-1.4-.39-5.97-1.96-2.71-.93-2.89-.91-5.08-1.69-3.51-1.25-3.72-1.64-5.11-1.98-3.02-.73-6.31.23-7.48.66-2.6.98-2.23 1.64-5.24 2.97-1.47.64-3.53 1.53-6.23 1.6-1.72.05-4.43.12-6.68-1.6-3.56-2.76-3.26-8-3.17-9.58z" fill="#f6d2a2" stroke="#000" stroke-miterlimit="10" stroke-width="2"/><path d="m187.54 434.42c-.66-14.95 27.93-16.86 31.28-4.31 3.34 12.57-29.91 15.44-31.28 4.31z" fill="#010101"/><path d="m119.01 679.3c0-3.44 2.37-6.22 5.31-6.22" fill="none" stroke="#000" stroke-miterlimit="10" stroke-width="2"/><path d="m287.35 675.02c0-4.68-1.58-8.47-3.54-8.47" fill="none" stroke="#000" stroke-miterlimit="10" stroke-width="2"/><path d="m550.33 636.09c10.07 6.25 28.53 25.13 13.4 34.3-14.51 13.33-22.7-14.65-35.48-18.47 4.96-8.01 12.9-13.71 22.08-15.83z" fill="#f6d2a2" stroke="#000" stroke-miterlimit="10" stroke-width="2"/><path d="m435.56 660.74c-11.28 1.72-17.62 11.88-26.99 17.02-3.32 3.07-8.5 2.86-11.56-.46-.71-.77-1.26-1.66-1.63-2.64-1.33.03-2.59-.55-3.43-1.58-8.18-13.2 8.51-22.37 17.29-28.83 12.33-2.39 19.92 8.11 26.32 16.49z" fill="#f6d2a2" stroke="#000" stroke-miterlimit="10" stroke-width="2"/><path d="m541.9 355.78c36.08-23.31 69.26 33.61 24.67 45.95z" fill="#74cddd" stroke="#000" stroke-miterlimit="10" stroke-width="2"/><circle cx="564.41" cy="376.98" r="9.26" stroke="#000" stroke-miterlimit="10" stroke-width="2"/><path d="m376.67 410.62c-45.8-12.67-11.72-71.14 25.34-47.19z" fill="#74cddd" stroke="#000" stroke-miterlimit="10" stroke-width="2"/><circle cx="383.12" cy="386.24" r="10.26" stroke="#000" stroke-miterlimit="10" stroke-width="2"/><path d="m473.8 336.99c38.58 0 74.61 5.33 93.58 42.63 16.89 41.52 10.66 86.33 13.48 130.2 2.24 37.68 7.14 81.22-10.34 116.18-18.28 36.67-64.43 45.78-102.27 44.55-29.74-1.07-65.66-10.66-82.44-37.94-19.72-31.98-10.39-79.3-8.95-114.74 1.71-42-11.4-84.15 2.4-125.29 14.34-42.63 52.92-52.28 94.49-55.58" fill="#74cddd" stroke="#000" stroke-miterlimit="10" stroke-width="2"/><ellipse cx="431.25" cy="397.87" fill="#fff" rx="36.3" ry="34.08" stroke="#000" stroke-miterlimit="10" stroke-width="2"/><ellipse cx="521.21" cy="393.61" fill="#fff" rx="36.3" ry="34.08" stroke="#000" stroke-miterlimit="10" stroke-width="2"/><ellipse cx="521.21" cy="411.49" fill="#010101" rx="10.47" ry="11.54"/><ellipse cx="525.93" cy="414.12" fill="#fff" rx="2.45" ry="2.93"/><ellipse cx="435.56" cy="414.12" fill="#010101" rx="10.65" ry="11.54"/><ellipse cx="440.41" cy="416.75" fill="#fff" rx="2.51" ry="2.93"/><path d="m494.63 445.22c-.86-.9-1.24-.43-6.66-1.7-4.32-1.01-6.47-1.51-7.03-1.87-.26-.17-1.04-.72-1.51-.45-.42.24-.4 1.01-.39 1.39.05 1.75-.06 3.5.03 5.24.01.22.03 1.66.07 4.54.02 1.86.02 1.77.03 2.87.07 5.1.19 5.75.34 6.35.31 1.19.65 2.52 1.78 3.74 1.57 1.7 3.6 2.07 4.9 2.32 1.49.28 2.97.55 4.45-.18 1.46-.72 2.1-1.99 3.03-3.83 1.18-2.35 1.56-4.37 1.87-6.06.59-3.25.48-5.71.45-6.41-.18-3.2-.27-4.81-1.36-5.95z" fill="#fff" stroke="#000" stroke-miterlimit="10" stroke-width="2"/><path d="m463.7 444.92c.86-.9 1.24-.43 6.66-1.7 4.32-1.01 6.47-1.51 7.03-1.87.29-.19 1.09-.72 1.51-.45.4.26.26 1.11.18 1.69-.23 1.7 0 3.43-.03 5.14-.04 2.05.01 3.7.03 4.74.04 1.34.06 1.27.1 2.67.1 3.36.15 5.06-.17 6.21-.21.78-.65 2.31-1.98 3.67-1.67 1.71-3.71 2.1-4.9 2.32-1.49.28-2.97.55-4.45-.18-1.46-.72-2.1-1.99-3.03-3.83-1.18-2.35-1.56-4.37-1.87-6.06-.59-3.25-.48-5.71-.45-6.41.19-3.19.28-4.8 1.37-5.94z" fill="#fff" stroke="#000" stroke-miterlimit="10" stroke-width="2"/><path d="m452.36 439.56c.06-1.09.25-3.78 2.05-6.32.87-1.23 1.81-2.01 2.4-2.49.75-.61 2.38-1.82 4.72-2.58 1.96-.64 3.54-.68 5.25-.71 6.52-.12 9.33-.1 11.4-.18 4.35-.16 4.31-.87 8.9-1.07 4.28-.18 6.29.22 7.84.71 2.12.68 3.57 1.61 4.81 2.4 1.3.83 3.74 2.43 5.97 5.34 1.2 1.57 1.94 2.48 2.4 4.01.95 3.12-.08 5.82-.36 6.5-.32.78-1.49 3.34-4.36 4.9-2.56 1.39-5.01 1.17-6.06 1.07-1.34-.14-1.4-.39-5.97-1.96-2.71-.93-2.89-.91-5.08-1.69-3.51-1.25-3.72-1.64-5.11-1.98-3.02-.73-6.31.23-7.48.66-2.6.98-2.23 1.64-5.24 2.97-1.47.64-3.53 1.53-6.23 1.6-1.72.05-4.43.12-6.68-1.6-3.56-2.75-3.26-7.99-3.17-9.58z" fill="#f6d2a2" stroke="#000" stroke-miterlimit="10" stroke-width="2"/><path d="m463.91 429.79c-.66-14.95 27.93-16.86 31.28-4.31 3.35 12.56-29.9 15.43-31.28 4.31z" fill="#010101"/><g stroke="#000" stroke-miterlimit="10"><path d="m395.38 674.66c0-3.44 2.37-6.22 5.31-6.22" fill="none" stroke-width="2"/><path d="m563.73 670.39c0-4.68-1.58-8.47-3.54-8.47" fill="none" stroke-width="2"/><path d="m62.99 470.63c1.33 9.39 3.27 23.1 15.33 31.25 12.52 8.47 27.15 4.53 28.99 4.02 15.74-4.39 22.11-17.57 22.99-19.48.57-1 1.23-2.42 1.66-4.22.37-1.58.44-2.96.41-4.02.16-5.51-1.4-7.89-2.9-9.04 0 0-.53-.4-5.38-2.61s.09-.03 3.52-1.41c.47-.32 1.02-.64 1.64-.95.28-.13.55-.25.81-.36.93-.34 2.17-.95 3.15-2.11 3.33-3.93.65-10.63-.21-12.85-3.87-9.98-16.81-16.79-28.16-19.27-4.47-.98-23.91-5.29-35.54 6.41-9.82 9.89-7.85 23.78-6.31 34.64z" fill="#f6d2a2" stroke-width="2"/><path d="m124.31 467.4c-2.81.86-7.36 1.88-13 1.52-4.92-.32-8.83-1.57-11.39-2.61" fill="none" stroke-width="2"/><path d="m309.29 563.39c4.04 2.51 11.45 10.09 5.38 13.77-5.82 5.35-9.11-5.88-14.24-7.41 1.99-3.22 5.18-5.51 8.86-6.36z" fill="#f6d2a2" stroke-width="2"/><path d="m263.22 573.28c-4.53.69-7.07 4.77-10.83 6.83-1.33 1.23-3.41 1.15-4.64-.19-.28-.31-.51-.67-.66-1.06-.53.01-1.04-.22-1.38-.64-3.28-5.3 3.42-8.98 6.94-11.57 4.96-.94 8 3.27 10.57 6.63z" fill="#f6d2a2" stroke-width="2"/><path d="m305.91 450.87c14.48-9.36 27.8 13.49 9.9 18.44z" fill="#74cddd" stroke-width="2"/><circle cx="314.94" cy="459.38" r="3.72" stroke-width="2"/><path d="m239.58 472.88c-18.39-5.09-4.7-28.56 10.17-18.94z" fill="#74cddd" stroke-width="2"/><circle cx="242.17" cy="463.1" r="4.12" stroke-width="2"/><path d="m278.57 443.32c15.49 0 29.95 2.14 37.57 17.11 6.78 16.67 4.28 34.66 5.41 52.26.9 15.12 2.87 32.6-4.15 46.64-7.34 14.72-25.86 18.38-41.05 17.88-11.94-.43-26.36-4.28-33.1-15.23-7.92-12.84-4.17-31.83-3.59-46.06.68-16.86-4.58-33.78.96-50.3 5.75-17.11 21.24-20.99 37.93-22.31" fill="#74cddd" stroke-width="2"/><ellipse cx="261.49" cy="467.76" fill="#fff" rx="14.57" ry="13.68" stroke-width="2"/><ellipse cx="297.6" cy="466.05" fill="#fff" rx="14.57" ry="13.68" stroke-width="2"/></g><ellipse cx="297.6" cy="473.23" fill="#010101" rx="4.2" ry="4.63"/><ellipse cx="299.5" cy="474.29" fill="#fff" rx=".98" ry="1.18"/><ellipse cx="263.22" cy="474.29" fill="#010101" rx="4.27" ry="4.63"/><ellipse cx="265.17" cy="475.34" fill="#fff" rx="1.01" ry="1.18"/><path d="m286.93 486.77c-.35-.36-.5-.17-2.67-.68-1.73-.4-2.6-.61-2.82-.75-.1-.07-.42-.29-.61-.18-.17.1-.16.4-.16.56.02.7-.02 1.4.01 2.1 0 .09.01.67.03 1.82.01.75.01.71.01 1.15.03 2.05.08 2.31.14 2.55.12.48.26 1.01.71 1.5.63.68 1.45.83 1.97.93.6.11 1.19.22 1.79-.07.59-.29.84-.8 1.22-1.54.47-.94.63-1.75.75-2.43.24-1.3.19-2.29.18-2.57-.08-1.29-.11-1.93-.55-2.39z" fill="#fff" stroke="#000" stroke-miterlimit="10" stroke-width="2"/><path d="m274.52 486.65c.35-.36.5-.17 2.67-.68 1.73-.4 2.6-.61 2.82-.75.12-.08.44-.29.61-.18.16.11.1.45.07.68-.09.68 0 1.38-.01 2.06-.02.82 0 1.48.01 1.9.01.54.02.51.04 1.07.04 1.35.06 2.03-.07 2.49-.09.31-.26.93-.8 1.47-.67.69-1.49.84-1.97.93-.6.11-1.19.22-1.79-.07-.59-.29-.84-.8-1.22-1.54-.47-.94-.63-1.75-.75-2.43-.24-1.3-.19-2.29-.18-2.57.09-1.28.13-1.92.57-2.38z" fill="#fff" stroke="#000" stroke-miterlimit="10" stroke-width="2"/><path d="m269.97 484.5c.03-.44.1-1.52.82-2.54.35-.49.73-.81.97-1 .3-.25.96-.73 1.89-1.04.79-.26 1.42-.27 2.11-.29 2.62-.05 3.74-.04 4.58-.07 1.75-.07 1.73-.35 3.57-.43 1.72-.07 2.53.09 3.15.29.85.27 1.43.65 1.93.97.52.34 1.5.97 2.39 2.14.48.63.78.99.97 1.61.38 1.25-.03 2.34-.14 2.61-.13.31-.6 1.34-1.75 1.97-1.03.56-2.01.47-2.43.43-.54-.05-.56-.16-2.4-.79-1.09-.37-1.16-.37-2.04-.68-1.41-.5-1.49-.66-2.05-.79-1.21-.29-2.53.09-3 .27-1.04.39-.9.66-2.1 1.19-.59.26-1.42.61-2.5.64-.69.02-1.78.05-2.68-.64-1.45-1.11-1.33-3.21-1.29-3.85z" fill="#f6d2a2" stroke="#000" stroke-miterlimit="10" stroke-width="2"/><path d="m274.6 480.58c-.26-6 11.21-6.77 12.56-1.73 1.34 5.04-12.01 6.19-12.56 1.73z" fill="#010101"/><path d="m247.09 578.87c0-1.38.95-2.5 2.13-2.5" fill="none" stroke="#000" stroke-miterlimit="10" stroke-width="2"/><path d="m314.67 577.16c0-1.88-.63-3.4-1.42-3.4" fill="none" stroke="#000" stroke-miterlimit="10" stroke-width="2"/><path d="m602.33 477.28c-1.33 9.39-3.27 23.1-15.33 31.25-12.52 8.47-27.15 4.53-28.99 4.02-15.74-4.39-22.11-17.57-22.99-19.48-.57-1-1.23-2.42-1.66-4.22-.37-1.58-.44-2.96-.41-4.02-.16-5.51 1.4-7.89 2.9-9.04 0 0 .53-.4 5.38-2.61s-.09-.03-3.52-1.41c-.47-.32-1.02-.64-1.64-.95-.28-.13-.55-.25-.81-.36-.93-.34-2.17-.95-3.15-2.11-3.33-3.93-.65-10.63.21-12.85 3.87-9.98 16.81-16.79 28.16-19.27 4.47-.98 23.91-5.29 35.54 6.41 9.82 9.89 7.85 23.77 6.31 34.64z" fill="#f6d2a2" stroke="#000" stroke-miterlimit="10" stroke-width="2"/><path d="m541.01 474.04c2.81.86 7.36 1.88 13 1.52 4.92-.32 8.83-1.57 11.39-2.61" fill="none" stroke="#000" stroke-miterlimit="10" stroke-width="2"/><path d="m162.47 563.39c4.04 2.51 11.45 10.09 5.38 13.77-5.82 5.35-9.11-5.88-14.24-7.41 1.99-3.22 5.18-5.51 8.86-6.36z" fill="#f6d2a2" stroke="#000" stroke-miterlimit="10" stroke-width="2"/><path d="m116.4 573.28c-4.53.69-7.07 4.77-10.83 6.83-1.33 1.23-3.41 1.15-4.64-.19-.28-.31-.51-.67-.66-1.06-.53.01-1.04-.22-1.38-.64-3.28-5.3 3.42-8.98 6.94-11.57 4.95-.94 8 3.27 10.57 6.63z" fill="#f6d2a2" stroke="#000" stroke-miterlimit="10" stroke-width="2"/><path d="m159.09 450.87c14.48-9.36 27.8 13.49 9.9 18.44z" fill="#74cddd" stroke="#000" stroke-miterlimit="10" stroke-width="2"/><circle cx="168.12" cy="459.38" r="3.72" stroke="#000" stroke-miterlimit="10" stroke-width="2"/><path d="m92.76 472.88c-18.39-5.09-4.7-28.56 10.17-18.94z" fill="#74cddd" stroke="#000" stroke-miterlimit="10" stroke-width="2"/><circle cx="95.35" cy="463.1" r="4.12" stroke="#000" stroke-miterlimit="10" stroke-width="2"/><path d="m131.75 443.32c15.49 0 29.95 2.14 37.57 17.11 6.78 16.67 4.28 34.66 5.41 52.26.9 15.12 2.87 32.6-4.15 46.64-7.34 14.72-25.86 18.38-41.05 17.88-11.94-.43-26.36-4.28-33.1-15.23-7.92-12.84-4.17-31.83-3.59-46.06.68-16.86-4.58-33.78.96-50.3 5.75-17.11 21.24-20.99 37.93-22.31" fill="#74cddd" stroke="#000" stroke-miterlimit="10" stroke-width="2"/><ellipse cx="114.67" cy="467.76" fill="#fff" rx="14.57" ry="13.68" stroke="#000" stroke-miterlimit="10" stroke-width="2"/><ellipse cx="150.78" cy="466.05" fill="#fff" rx="14.57" ry="13.68" stroke="#000" stroke-miterlimit="10" stroke-width="2"/><ellipse cx="150.78" cy="473.23" fill="#010101" rx="4.2" ry="4.63"/><ellipse cx="152.67" cy="474.29" fill="#fff" rx=".98" ry="1.18"/><ellipse cx="116.4" cy="474.29" fill="#010101" rx="4.27" ry="4.63"/><ellipse cx="118.34" cy="475.34" fill="#fff" rx="1.01" ry="1.18"/><path d="m140.11 486.77c-.35-.36-.5-.17-2.67-.68-1.73-.4-2.6-.61-2.82-.75-.1-.07-.42-.29-.61-.18-.17.1-.16.4-.16.56.02.7-.02 1.4.01 2.1 0 .09.01.67.03 1.82.01.75.01.71.01 1.15.03 2.05.08 2.31.14 2.55.12.48.26 1.01.71 1.5.63.68 1.45.83 1.97.93.6.11 1.19.22 1.79-.07.59-.29.84-.8 1.22-1.54.47-.94.63-1.75.75-2.43.24-1.3.19-2.29.18-2.57-.08-1.29-.11-1.93-.55-2.39z" fill="#fff" stroke="#000" stroke-miterlimit="10" stroke-width="2"/><path d="m127.69 486.65c.35-.36.5-.17 2.67-.68 1.73-.4 2.6-.61 2.82-.75.12-.08.44-.29.61-.18.16.11.1.45.07.68-.09.68 0 1.38-.01 2.06-.02.82 0 1.48.01 1.9.01.54.02.51.04 1.07.04 1.35.06 2.03-.07 2.49-.09.31-.26.93-.8 1.47-.67.69-1.49.84-1.97.93-.6.11-1.19.22-1.79-.07-.59-.29-.84-.8-1.22-1.54-.47-.94-.63-1.75-.75-2.43-.24-1.3-.19-2.29-.18-2.57.1-1.28.14-1.92.57-2.38z" fill="#fff" stroke="#000" stroke-miterlimit="10" stroke-width="2"/><path d="m123.14 484.5c.03-.44.1-1.52.82-2.54.35-.49.73-.81.97-1 .3-.25.96-.73 1.89-1.04.79-.26 1.42-.27 2.11-.29 2.62-.05 3.74-.04 4.58-.07 1.75-.07 1.73-.35 3.57-.43 1.72-.07 2.53.09 3.15.29.85.27 1.43.65 1.93.97.52.34 1.5.97 2.4 2.14.48.63.78.99.97 1.61.38 1.25-.03 2.34-.14 2.61-.13.31-.6 1.34-1.75 1.97-1.03.56-2.01.47-2.43.43-.54-.05-.56-.16-2.4-.79-1.09-.37-1.16-.37-2.04-.68-1.41-.5-1.49-.66-2.05-.79-1.21-.29-2.53.09-3 .27-1.04.39-.9.66-2.1 1.19-.59.26-1.42.61-2.5.64-.69.02-1.78.05-2.68-.64-1.46-1.11-1.33-3.21-1.3-3.85z" fill="#f6d2a2" stroke="#000" stroke-miterlimit="10" stroke-width="2"/><path d="m127.78 480.58c-.26-6 11.21-6.77 12.56-1.73 1.34 5.04-12.01 6.19-12.56 1.73z" fill="#010101"/><path d="m100.27 578.87c0-1.38.95-2.5 2.13-2.5" fill="none" stroke="#000" stroke-miterlimit="10" stroke-width="2"/><path d="m167.85 577.16c0-1.88-.63-3.4-1.42-3.4" fill="none" stroke="#000" stroke-miterlimit="10" stroke-width="2"/><path d="m570.14 555.25c3.69 2.29 10.46 9.21 4.91 12.57-5.32 4.89-8.32-5.37-13.01-6.77 1.82-2.93 4.73-5.02 8.1-5.8z" fill="#f6d2a2" stroke="#000" stroke-miterlimit="10" stroke-width="2"/><path d="m528.06 564.29c-4.14.63-6.46 4.35-9.89 6.24-1.22 1.12-3.12 1.05-4.24-.17-.26-.28-.46-.61-.6-.97-.49.01-.95-.2-1.26-.58-3-4.84 3.12-8.2 6.34-10.57 4.52-.87 7.3 2.98 9.65 6.05z" fill="#f6d2a2" stroke="#000" stroke-miterlimit="10" stroke-width="2"/><path d="m567.05 452.48c13.23-8.55 25.39 12.32 9.04 16.85z" fill="#74cddd" stroke="#000" stroke-miterlimit="10" stroke-width="2"/><circle cx="575.3" cy="460.25" r="3.39" stroke="#000" stroke-miterlimit="10" stroke-width="2"/><path d="m506.47 472.59c-16.79-4.65-4.3-26.08 9.29-17.3z" fill="#74cddd" stroke="#000" stroke-miterlimit="10" stroke-width="2"/><circle cx="508.83" cy="463.65" r="3.76" stroke="#000" stroke-miterlimit="10" stroke-width="2"/><path d="m542.08 445.59c14.15 0 27.36 1.95 34.31 15.63 6.19 15.22 3.91 31.65 4.94 47.73.82 13.81 2.62 29.78-3.79 42.6-6.7 13.44-23.62 16.78-37.5 16.33-10.9-.39-24.07-3.91-30.23-13.91-7.23-11.72-3.81-29.07-3.28-42.07.63-15.4-4.18-30.85.88-45.94 5.26-15.63 19.4-19.17 34.64-20.38" fill="#74cddd" stroke="#000" stroke-miterlimit="10" stroke-width="2"/><ellipse cx="526.48" cy="467.91" fill="#fff" rx="13.31" ry="12.49" stroke="#000" stroke-miterlimit="10" stroke-width="2"/><ellipse cx="559.46" cy="466.35" fill="#fff" rx="13.31" ry="12.49" stroke="#000" stroke-miterlimit="10" stroke-width="2"/><ellipse cx="559.46" cy="472.91" fill="#010101" rx="3.84" ry="4.23"/><ellipse cx="561.19" cy="473.87" fill="#fff" rx=".9" ry="1.07"/><ellipse cx="528.06" cy="473.87" fill="#010101" rx="3.9" ry="4.23"/><ellipse cx="529.84" cy="474.84" fill="#fff" rx=".92" ry="1.07"/><path d="m549.72 485.27c-.32-.33-.45-.16-2.44-.62-1.58-.37-2.37-.55-2.58-.69-.1-.06-.38-.26-.55-.16-.15.09-.15.37-.14.51.02.64-.02 1.28.01 1.92 0 .08.01.61.02 1.67.01.68.01.65.01 1.05.03 1.87.07 2.11.13 2.33.11.43.24.92.65 1.37.57.62 1.32.76 1.8.85.55.1 1.09.2 1.63-.07.54-.26.77-.73 1.11-1.4.43-.86.57-1.6.69-2.22.22-1.19.18-2.09.16-2.35-.07-1.18-.1-1.77-.5-2.19z" fill="#fff" stroke="#000" stroke-miterlimit="10" stroke-width="2"/><path d="m538.38 485.16c.32-.33.45-.16 2.44-.62 1.58-.37 2.37-.55 2.58-.69.11-.07.4-.26.55-.16s.09.41.07.62c-.08.62 0 1.26-.01 1.89-.01.75 0 1.35.01 1.74.01.49.02.47.04.98.04 1.23.05 1.85-.06 2.28-.08.29-.24.85-.73 1.35-.61.63-1.36.77-1.8.85-.55.1-1.09.2-1.63-.07-.54-.26-.77-.73-1.11-1.4-.43-.86-.57-1.6-.69-2.22-.22-1.19-.18-2.09-.16-2.35.07-1.19.1-1.78.5-2.2z" fill="#fff" stroke="#000" stroke-miterlimit="10" stroke-width="2"/><path d="m534.22 483.2c.02-.4.09-1.38.75-2.32.32-.45.67-.74.88-.91.28-.22.87-.67 1.73-.95.72-.24 1.3-.25 1.93-.26 2.39-.04 3.42-.04 4.18-.07 1.59-.06 1.58-.32 3.26-.39 1.57-.07 2.31.08 2.87.26.78.25 1.31.59 1.76.88.48.31 1.37.89 2.19 1.96.44.57.71.91.88 1.47.35 1.14-.03 2.14-.13 2.38-.12.29-.55 1.23-1.6 1.8-.94.51-1.84.43-2.22.39-.49-.05-.51-.14-2.19-.72-.99-.34-1.06-.33-1.86-.62-1.29-.46-1.36-.6-1.87-.73-1.11-.27-2.32.08-2.74.24-.95.36-.82.6-1.92 1.09-.54.24-1.3.56-2.29.59-.63.02-1.62.04-2.45-.59-1.3-1-1.19-2.92-1.16-3.5z" fill="#f6d2a2" stroke="#000" stroke-miterlimit="10" stroke-width="2"/><path d="m538.45 479.61c-.24-5.48 10.24-6.18 11.47-1.58s-10.96 5.66-11.47 1.58z" fill="#010101"/><path d="m513.33 569.39c0-1.26.87-2.28 1.95-2.28" fill="none" stroke="#000" stroke-miterlimit="10" stroke-width="2"/><path d="m575.05 567.83c0-1.72-.58-3.11-1.3-3.11" fill="none" stroke="#000" stroke-miterlimit="10" stroke-width="2"/><path d="m440.29 555.25c3.69 2.29 10.46 9.21 4.91 12.57-5.32 4.89-8.32-5.37-13.01-6.77 1.83-2.93 4.74-5.02 8.1-5.8z" fill="#f6d2a2" stroke="#000" stroke-miterlimit="10" stroke-width="2"/><path d="m398.22 564.29c-4.14.63-6.46 4.35-9.89 6.24-1.22 1.12-3.12 1.05-4.24-.17-.26-.28-.46-.61-.6-.97-.49.01-.95-.2-1.26-.58-3-4.84 3.12-8.2 6.34-10.57 4.52-.87 7.3 2.98 9.65 6.05z" fill="#f6d2a2" stroke="#000" stroke-miterlimit="10" stroke-width="2"/><path d="m437.21 452.48c13.23-8.55 25.39 12.32 9.04 16.85z" fill="#74cddd" stroke="#000" stroke-miterlimit="10" stroke-width="2"/><circle cx="445.46" cy="460.25" r="3.39" stroke="#000" stroke-miterlimit="10" stroke-width="2"/><path d="m376.63 472.59c-16.79-4.65-4.3-26.08 9.29-17.3z" fill="#74cddd" stroke="#000" stroke-miterlimit="10" stroke-width="2"/><circle cx="378.99" cy="463.65" r="3.76" stroke="#000" stroke-miterlimit="10" stroke-width="2"/><path d="m412.24 445.59c14.15 0 27.36 1.95 34.31 15.63 6.19 15.22 3.91 31.65 4.94 47.73.82 13.81 2.62 29.78-3.79 42.6-6.7 13.44-23.62 16.78-37.5 16.33-10.9-.39-24.07-3.91-30.23-13.91-7.23-11.72-3.81-29.07-3.28-42.07.63-15.4-4.18-30.85.88-45.94 5.26-15.63 19.4-19.17 34.64-20.38" fill="#74cddd" stroke="#000" stroke-miterlimit="10" stroke-width="2"/><ellipse cx="396.64" cy="467.91" fill="#fff" rx="13.31" ry="12.49" stroke="#000" stroke-miterlimit="10" stroke-width="2"/><ellipse cx="429.62" cy="466.35" fill="#fff" rx="13.31" ry="12.49" stroke="#000" stroke-miterlimit="10" stroke-width="2"/><ellipse cx="429.62" cy="472.91" fill="#010101" rx="3.84" ry="4.23"/><ellipse cx="431.35" cy="473.87" fill="#fff" rx=".9" ry="1.07"/><ellipse cx="398.22" cy="473.87" fill="#010101" rx="3.9" ry="4.23"/><ellipse cx="399.99" cy="474.84" fill="#fff" rx=".92" ry="1.07"/><path d="m419.87 485.27c-.32-.33-.45-.16-2.44-.62-1.58-.37-2.37-.55-2.58-.69-.1-.06-.38-.26-.56-.16-.15.09-.15.37-.14.51.02.64-.02 1.28.01 1.92 0 .08.01.61.02 1.67.01.68.01.65.01 1.05.03 1.87.07 2.11.13 2.33.11.43.24.92.65 1.37.57.62 1.32.76 1.8.85.55.1 1.09.2 1.63-.07.54-.26.77-.73 1.11-1.4.43-.86.57-1.6.69-2.22.22-1.19.18-2.09.16-2.35-.05-1.18-.09-1.77-.49-2.19z" fill="#fff" stroke="#000" stroke-miterlimit="10" stroke-width="2"/><path d="m408.53 485.16c.32-.33.45-.16 2.44-.62 1.58-.37 2.37-.55 2.58-.69.11-.07.4-.26.56-.16.15.1.09.41.07.62-.08.62 0 1.26-.01 1.89-.01.75 0 1.35.01 1.74.01.49.02.47.04.98.04 1.23.05 1.85-.06 2.28-.08.29-.24.85-.73 1.35-.61.63-1.36.77-1.8.85-.55.1-1.09.2-1.63-.07-.54-.26-.77-.73-1.11-1.4-.43-.86-.57-1.6-.69-2.22-.22-1.19-.18-2.09-.16-2.35.06-1.19.09-1.78.49-2.2z" fill="#fff" stroke="#000" stroke-miterlimit="10" stroke-width="2"/><path d="m404.38 483.2c.02-.4.09-1.38.75-2.32.32-.45.67-.74.88-.91.28-.22.87-.67 1.73-.95.72-.24 1.3-.25 1.93-.26 2.39-.04 3.42-.04 4.18-.07 1.59-.06 1.58-.32 3.26-.39 1.57-.07 2.31.08 2.87.26.78.25 1.31.59 1.76.88.48.31 1.37.89 2.19 1.96.44.57.71.91.88 1.47.35 1.14-.03 2.14-.13 2.38-.12.29-.55 1.23-1.6 1.8-.94.51-1.84.43-2.22.39-.49-.05-.51-.14-2.19-.72-.99-.34-1.06-.33-1.86-.62-1.29-.46-1.36-.6-1.87-.73-1.11-.27-2.32.08-2.74.24-.95.36-.82.6-1.92 1.09-.54.24-1.3.56-2.29.59-.63.02-1.62.04-2.45-.59-1.31-1-1.2-2.92-1.16-3.5z" fill="#f6d2a2" stroke="#000" stroke-miterlimit="10" stroke-width="2"/><path d="m408.61 479.61c-.24-5.48 10.24-6.18 11.47-1.58s-10.97 5.66-11.47 1.58z" fill="#010101"/><g stroke="#000" stroke-miterlimit="10"><g stroke-width="2"><path d="m383.48 569.39c0-1.26.87-2.28 1.95-2.28" fill="none"/><path d="m445.21 567.83c0-1.72-.58-3.11-1.3-3.11" fill="none"/><path d="m593.1 501.31c-.71 4.98-1.73 12.25-8.13 16.57-6.64 4.49-14.39 2.4-15.37 2.13-8.34-2.33-11.72-9.32-12.19-10.32-.3-.53-.65-1.28-.88-2.24-.2-.84-.23-1.57-.22-2.13-.08-2.92.74-4.18 1.54-4.79 0 0 .28-.21 2.85-1.38s-.05-.02-1.87-.75c-.25-.17-.54-.34-.87-.5-.15-.07-.29-.13-.43-.19-.49-.18-1.15-.5-1.67-1.12-1.76-2.08-.35-5.64.11-6.81 2.05-5.29 8.91-8.9 14.93-10.22 2.37-.52 12.67-2.81 18.84 3.4 5.22 5.23 4.18 12.59 3.36 18.35z" fill="#f6d2a2"/><path d="m560.59 499.59c1.49.45 3.9 1 6.89.8 2.61-.17 4.68-.83 6.04-1.38" fill="none"/><path d="m85.81 512.58c.65 4.56 1.59 11.21 7.44 15.17 6.08 4.11 13.18 2.2 14.07 1.95 7.64-2.13 10.73-8.53 11.16-9.45.28-.48.6-1.18.8-2.05.18-.76.21-1.44.2-1.95.08-2.68-.68-3.83-1.41-4.39 0 0-.26-.2-2.61-1.27s.04-.02 1.71-.68c.23-.15.49-.31.79-.46.13-.07.26-.12.39-.18.45-.17 1.05-.46 1.53-1.02 1.62-1.91.32-5.16-.1-6.24-1.88-4.84-8.16-8.15-13.67-9.36-2.17-.47-11.6-2.57-17.25 3.11-4.75 4.81-3.8 11.55-3.05 16.82z" fill="#f6d2a2"/><path d="m115.57 511.01c-1.36.42-3.57.91-6.31.74-2.39-.15-4.29-.76-5.53-1.27" fill="none"/><path d="m371.68 505.36c.68 4.83 1.68 11.88 7.88 16.07 6.44 4.35 13.96 2.33 14.9 2.06 8.09-2.26 11.37-9.03 11.82-10.01.29-.51.63-1.24.85-2.17.19-.81.23-1.52.21-2.06.08-2.83-.72-4.06-1.49-4.64 0 0-.27-.21-2.77-1.34s.04-.02 1.81-.72c.24-.16.52-.33.84-.49.14-.07.28-.13.41-.19.48-.17 1.12-.49 1.62-1.08 1.71-2.02.34-5.47-.11-6.61-1.99-5.13-8.64-8.63-14.48-9.91-2.3-.5-12.29-2.72-18.27 3.29-5.02 5.07-4.01 12.21-3.22 17.8z" fill="#f6d2a2"/><path d="m403.21 503.69c-1.44.44-3.79.97-6.68.78-2.53-.16-4.54-.81-5.86-1.34" fill="none"/><path d="m331.01 505.85c-.6 4.22-1.47 10.37-6.88 14.03-5.62 3.8-12.19 2.03-13.02 1.8-7.07-1.97-9.93-7.89-10.32-8.74-.25-.45-.55-1.09-.74-1.89-.17-.71-.2-1.33-.19-1.8-.07-2.48.63-3.54 1.3-4.06 0 0 .24-.18 2.42-1.17s-.04-.02-1.58-.63c-.21-.14-.46-.29-.74-.42-.12-.06-.24-.11-.36-.16-.42-.15-.97-.43-1.41-.95-1.49-1.76-.29-4.77.09-5.77 1.74-4.48 7.55-7.54 12.64-8.65 2.01-.44 10.73-2.38 15.95 2.88 4.41 4.42 3.53 10.65 2.84 15.53z" fill="#f6d2a2"/><path d="m303.48 504.4c1.26.38 3.31.84 5.83.68 2.21-.14 3.97-.7 5.11-1.17" fill="none"/><path d="m235.76 508.09c.34 2.58.83 6.35 3.9 8.6 3.18 2.33 6.91 1.25 7.37 1.1 4-1.21 5.62-4.83 5.85-5.36.14-.27.31-.67.42-1.16.09-.43.11-.81.11-1.1.04-1.52-.36-2.17-.74-2.49 0 0-.14-.11-1.37-.72s.02-.01.9-.39c.12-.09.26-.18.42-.26.07-.04.14-.07.21-.1.24-.09.55-.26.8-.58.85-1.08.17-2.92-.05-3.53-.98-2.75-4.27-4.62-7.16-5.3-1.14-.27-6.08-1.46-9.04 1.76-2.52 2.72-2.01 6.54-1.62 9.53z" fill="#f6d2a2"/><path d="m251.35 507.2c-.71.24-1.87.52-3.31.42-1.25-.09-2.25-.43-2.9-.72" fill="none"/><path d="m501.43 504.81c.37 2.83.91 6.96 4.27 9.42 3.49 2.55 7.57 1.36 8.08 1.21 4.39-1.32 6.16-5.3 6.41-5.87.16-.3.34-.73.46-1.27.1-.47.12-.89.12-1.21.04-1.66-.39-2.38-.81-2.72 0 0-.15-.12-1.5-.79s.02-.01.98-.42c.13-.1.28-.19.46-.29.08-.04.15-.08.22-.11.26-.1.6-.29.88-.63.93-1.18.18-3.2-.06-3.87-1.08-3.01-4.68-5.06-7.85-5.81-1.24-.29-6.66-1.59-9.9 1.93-2.73 2.97-2.19 7.15-1.76 10.43z" fill="#f6d2a2"/><path d="m518.52 503.83c-.78.26-2.05.57-3.62.46-1.37-.1-2.46-.47-3.17-.79" fill="none"/><path d="m180.4 509.52c-.47 3.34-1.16 8.22-5.46 11.12-4.46 3.01-9.66 1.61-10.32 1.43-5.6-1.56-7.87-6.26-8.18-6.93-.2-.36-.44-.86-.59-1.5-.13-.56-.16-1.05-.15-1.43-.06-1.96.5-2.81 1.03-3.22 0 0 .19-.14 1.92-.93s-.03-.01-1.25-.5c-.17-.11-.36-.23-.58-.34-.1-.05-.19-.09-.29-.13-.33-.12-.77-.34-1.12-.75-1.18-1.4-.23-3.78.07-4.57 1.38-3.55 5.98-5.98 10.02-6.86 1.59-.35 8.51-1.88 12.65 2.28 3.5 3.52 2.8 8.46 2.25 12.33z" fill="#f6d2a2"/><path d="m158.58 508.37c1 .3 2.62.67 4.63.54 1.75-.11 3.14-.56 4.05-.93" fill="none"/><path d="m458.95 503.64c-.44 3.1-1.08 7.62-5.06 10.31-4.13 2.79-8.96 1.49-9.57 1.32-5.19-1.45-7.29-5.8-7.58-6.43-.19-.33-.41-.8-.55-1.39-.12-.52-.15-.98-.14-1.32-.05-1.82.46-2.6.96-2.98 0 0 .18-.13 1.78-.86s-.03-.01-1.16-.46c-.16-.1-.34-.21-.54-.31-.09-.04-.18-.08-.27-.12-.31-.11-.72-.31-1.04-.69-1.1-1.3-.22-3.51.07-4.24 1.28-3.29 5.55-5.54 9.29-6.36 1.47-.32 7.89-1.75 11.72 2.11 3.25 3.25 2.6 7.83 2.09 11.42z" fill="#f6d2a2"/><path d="m438.72 502.57c.93.28 2.43.62 4.29.5 1.62-.1 2.91-.52 3.76-.86" fill="none"/></g><path d="m460.19 844.39c2.42 1.47 3.99 1.51 4.96 1.31 1.74-.36 2.41-1.69 4.63-3.92.81-.82 3.86-3.88 4.3-3.66.72.35-5.88 9.14-7.79 15.72-.85 2.92-1.29 5.01-1.29 5.01-.49 2.31-.41 2.65-.83 4.12-.8 2.79-1.25 4.39-2.97 5.49-1.69 1.09-4.51 1.63-5.62.78-1.74-1.34 1.4-5.68 1.65-6.02 1.61-2.18 3.58-3.46 4.3-3.92 8-5.2 11.99-7.8 14.21-9.94 4.34-4.18 5.05-7.43 8.26-7.59 1.89-.09 3.53.93 4.63 1.83" fill="none"/><path d="m465.6 856.91c.29-.16 1.25-.66 2.48-.54.98.1 2.05.57 2.48 1.28.96 1.56-1.92 3.07-3.04 7.11-.24.86-.87 3.15.19 3.63.96.43 2.83-.85 3.28-1.18" fill="none"/><path d="m477.94 857.99c-.67.02-1.81.12-2.79.74-1.45.9-1.62 2.32-1.86 4.41-.23 1.94-.34 3.13.68 4.07.06.06 1.27 1.13 2.67.93 1.09-.16 1.71-1.01 2.36-1.91 0 0 .62-.86.88-1.88.03-.11.09-.39.13-.62.03-.18.04-.37.04-.37s0-.01 0-.03c.02-.26-.2-1.95-.25-2.5-.09-1.09.24-1.41-.19-2.01-.1-.14-.3-.41-.62-.44-.46-.05-.93.42-1.12.83-.18.41.02.55.12 1.37.14 1.12-.15 1.5.31 1.96.15.15.31.23.62.39.7.36 1.36.51 1.8.59" fill="none"/><path d="m488.91 848.57c-.14.34-.67 1.67-.81 2.01-1.53 3.81-1.52 3.82-1.67 4.17-1.57 3.66-1.95 3.07-2.48 5-.68 2.49.14 2.81-.81 4.9-.45.98-1.06 1.87-.56 2.35.41.39 1.46.41 2.05.34.37-.04.66-.12.87-.2" fill="none"/><path d="m484.82 851.96c.34.16 2.54 1.18 4.46.44.25-.1.53-.24.81-.44" fill="none"/><path d="m488.29 860.39c.06 1.14-.07 2.05-.19 2.65-.26 1.34-.67 2.03-.37 3.14.09.33.35 1.3 1.05 1.42.57.09 1.19-.4 1.43-.59.34-.27.49-.51.74-.88.88-1.29.97-1.19 1.18-1.62.57-1.17.12-2.45-.06-2.45-.24 0-.16 2.15-1.12 5.74-.63 2.38-1.33 3.93-2.91 4.76-.33.17-1.1.57-1.74.34-.57-.2-.87-.85-.81-1.62" fill="none"/><path d="m497.83 860.69c-.65-.52-2.09-.47-2.91.05-.3.19-.78.61-.81 3.68-.02 2.97.42 3.27.68 3.38.68.29 1.78-.05 2.36-.54.43-.36.54-.77.68-1.28.17-.61.06-.77.12-1.62.1-1.22.37-1.38.31-2.31-.04-.67-.06-1.07-.43-1.36z" fill="none"/><path d="m498.28 864.39c0-.48 0-.59 0-.59s.02.29.06 1.77c.03.88.03 1.16.31 1.42.04.04.44.4 1.05.39.58-.01 1.12-.33 1.36-.83" fill="none"/></g></svg>