<?xml version="1.0" encoding="utf-8"?>
<!-- Generator: Adobe Illustrator 24.1.1, SVG Export Plug-In . SVG Version: 6.00 Build 0)  -->
<svg version="1.1" id="Слой_1" xmlns="http://www.w3.org/2000/svg" xmlns:xlink="http://www.w3.org/1999/xlink" x="0px" y="0px"
	 viewBox="0 0 1964.5 1054.56" style="enable-background:new 0 0 1964.5 1054.56;" xml:space="preserve">
<style type="text/css">
	.st0{fill:#F6D2A2;stroke:#000000;stroke-width:2;stroke-miterlimit:10;}
	.st1{fill:#74CDDD;stroke:#000000;stroke-width:2;stroke-miterlimit:10;}
	.st2{stroke:#000000;stroke-width:2;stroke-miterlimit:10;}
	.st3{fill:#FFFFFF;stroke:#000000;stroke-width:2;stroke-miterlimit:10;}
	.st4{fill:#010101;}
	.st5{fill:#FFFFFF;}
	.st6{fill:none;stroke:#000000;stroke-width:2;stroke-miterlimit:10;}
	.st7{stroke:#000000;stroke-miterlimit:10;}
	.st8{fill:#020202;}
	.st9{fill:none;stroke:#000000;stroke-miterlimit:10;}
</style>
<g>
	<path class="st0" d="M734.12,818.61c22.85,14.18,64.77,57.05,30.42,77.85c-32.94,30.26-51.53-33.25-80.53-41.92
		C695.26,836.36,713.3,823.43,734.12,818.61z"/>
	<path class="st0" d="M473.61,874.55c-25.61,3.89-39.99,26.96-61.26,38.64c-7.54,6.96-19.29,6.49-26.25-1.05
		c-1.61-1.74-2.87-3.78-3.71-5.99c-3.01,0.07-5.89-1.26-7.79-3.59c-18.57-29.96,19.32-50.78,39.24-65.46
		C441.85,831.71,459.08,855.53,473.61,874.55L473.61,874.55z"/>
	<path class="st1" d="M715.01,182.3c81.9-52.92,157.22,76.3,56,104.3L715.01,182.3z"/>
	<circle class="st2" cx="766.1" cy="230.42" r="21.02"/>
	<path class="st1" d="M339.93,306.78c-103.97-28.76-26.6-161.49,57.52-107.13L339.93,306.78z"/>
	<circle class="st2" cx="354.56" cy="251.43" r="23.28"/>
	<path class="st1" d="M560.4,139.63c87.59,0,169.37,12.1,212.44,96.78c38.35,94.24,24.2,195.98,30.61,295.55
		c5.08,85.53,16.21,184.37-23.47,263.73c-41.5,83.23-146.26,103.92-232.16,101.14c-67.51-2.42-149.04-24.2-187.15-86.14
		c-44.76-72.59-23.59-180.01-20.32-260.46c3.87-95.33-25.89-191.02,5.44-284.42c32.54-96.78,120.13-118.68,214.49-126.18"/>
	<g>
		<ellipse class="st3" cx="463.82" cy="277.83" rx="82.4" ry="77.36"/>
		<ellipse class="st3" cx="668.02" cy="268.17" rx="82.4" ry="77.36"/>
		<ellipse class="st4" cx="668.02" cy="308.76" rx="23.76" ry="26.2"/>
		<ellipse class="st5" cx="678.74" cy="314.73" rx="5.57" ry="6.65"/>
		<ellipse class="st4" cx="473.61" cy="314.73" rx="24.16" ry="26.2"/>
		<ellipse class="st5" cx="484.6" cy="320.7" rx="5.7" ry="6.65"/>
		<path class="st3" d="M607.7,385.32c-1.95-2.05-2.81-0.97-15.12-3.85c-9.8-2.29-14.69-3.43-15.97-4.25
			c-0.59-0.37-2.36-1.63-3.44-1.01c-0.95,0.55-0.91,2.29-0.88,3.16c0.1,3.97-0.13,7.94,0.08,11.9c0.03,0.49,0.07,3.76,0.15,10.31
			c0.05,4.22,0.04,4.02,0.08,6.52c0.17,11.58,0.43,13.05,0.78,14.41c0.7,2.69,1.48,5.71,4.04,8.49c3.56,3.85,8.17,4.71,11.12,5.26
			c3.39,0.63,6.73,1.25,10.11-0.4c3.32-1.63,4.78-4.53,6.87-8.69c2.68-5.33,3.55-9.91,4.25-13.75c1.34-7.38,1.1-12.95,1.01-14.55
			C610.36,391.56,610.16,387.91,607.7,385.32z"/>
		<path class="st3" d="M537.48,384.64c1.95-2.05,2.81-0.97,15.12-3.85c9.8-2.29,14.69-3.43,15.97-4.25
			c0.67-0.42,2.47-1.64,3.44-1.01c0.91,0.59,0.58,2.52,0.4,3.84c-0.52,3.86,0,7.78-0.08,11.67c-0.09,4.65,0.01,8.39,0.08,10.76
			c0.08,3.03,0.13,2.88,0.23,6.06c0.24,7.62,0.34,11.48-0.38,14.1c-0.49,1.78-1.48,5.25-4.5,8.34c-3.79,3.89-8.43,4.76-11.12,5.26
			c-3.39,0.63-6.73,1.25-10.11-0.4c-3.32-1.63-4.78-4.53-6.87-8.69c-2.68-5.33-3.55-9.91-4.25-13.75
			c-1.34-7.38-1.1-12.95-1.01-14.55C534.81,390.88,535.01,387.22,537.48,384.64z"/>
		<path class="st0" d="M511.75,372.48c0.14-2.48,0.57-8.57,4.65-14.35c1.96-2.79,4.12-4.57,5.46-5.66c1.7-1.39,5.4-4.13,10.71-5.86
			c4.46-1.46,8.03-1.55,11.93-1.62c14.8-0.26,21.17-0.23,25.87-0.4c9.87-0.37,9.79-1.98,20.21-2.43c9.72-0.42,14.29,0.49,17.79,1.62
			c4.81,1.55,8.1,3.66,10.92,5.46c2.96,1.89,8.49,5.51,13.54,12.13c2.72,3.56,4.4,5.62,5.46,9.1c2.15,7.08-0.18,13.22-0.81,14.76
			c-0.73,1.77-3.39,7.59-9.91,11.12c-5.82,3.15-11.38,2.66-13.75,2.43c-3.05-0.31-3.17-0.88-13.54-4.45
			c-6.15-2.12-6.55-2.07-11.52-3.84c-7.96-2.84-8.44-3.73-11.59-4.5c-6.86-1.67-14.33,0.51-16.98,1.51
			c-5.9,2.22-5.07,3.73-11.9,6.73c-3.33,1.46-8.02,3.47-14.15,3.64c-3.9,0.11-10.06,0.28-15.16-3.64
			C510.85,387.97,511.54,376.08,511.75,372.48z"/>
		<path class="st4" d="M537.96,350.29c-1.49-33.94,63.4-38.28,71-9.77C616.56,369.02,541.08,375.54,537.96,350.29z"/>
		<path class="st3" d="M572.82,401.21"/>
	</g>
	<path class="st0" d="M813.22,571.71c-0.97,7.03-2.38,17.3-11.13,23.41c-9.09,6.34-19.71,3.39-21.05,3.01
		c-11.43-3.29-16.05-13.16-16.69-14.59c-0.41-0.75-0.9-1.81-1.2-3.16c-0.27-1.18-0.32-2.22-0.3-3.01c-0.11-4.13,1.02-5.91,2.11-6.77
		c0,0,0.39-0.3,3.91-1.95l0,0l0,0c0,0-0.06-0.03-2.56-1.05c-0.34-0.24-0.74-0.48-1.19-0.71c-0.2-0.1-0.4-0.19-0.59-0.27
		c-0.68-0.25-1.58-0.71-2.29-1.58c-2.42-2.94-0.47-7.96,0.15-9.62c2.81-7.48,12.2-12.57,20.45-14.43c3.24-0.73,17.36-3.96,25.8,4.8
		C815.76,553.17,814.33,563.57,813.22,571.71z"/>
	<path class="st6" d="M768.71,568.28c2.04,0.64,5.35,1.41,9.44,1.14c3.57-0.24,6.41-1.18,8.27-1.95"/>
	<g>
		<path class="st0" d="M336.46,571.71c0.97,7.03,2.38,17.3,11.13,23.41c9.09,6.34,19.71,3.39,21.05,3.01
			c11.43-3.29,16.05-13.16,16.69-14.59c0.41-0.75,0.9-1.81,1.2-3.16c0.27-1.18,0.32-2.22,0.3-3.01c0.12-4.13-1.02-5.91-2.11-6.77
			c0,0-0.39-0.3-3.91-1.95l0,0l0,0c0,0,0.06-0.03,2.56-1.05c0.34-0.24,0.74-0.48,1.19-0.71c0.2-0.1,0.4-0.19,0.59-0.27
			c0.68-0.25,1.58-0.71,2.29-1.58c2.42-2.94,0.47-7.96-0.15-9.62c-2.81-7.48-12.2-12.57-20.45-14.43c-3.24-0.73-17.36-3.96-25.8,4.8
			C333.91,553.17,335.34,563.57,336.46,571.71z"/>
		<path class="st6" d="M381.63,567.85c-2.04,0.64-5.35,1.41-9.44,1.14c-3.57-0.24-6.41-1.18-8.27-1.95"/>
	</g>
	<path class="st6" d="M382.39,906.16c0-7.8,5.39-14.11,12.05-14.11"/>
	<path class="st6" d="M764.54,896.46c0-10.63-3.59-19.23-8.03-19.23"/>
</g>
<g>
	<path d="M224.56,143.5c-17.49,29.65-33.32,60.14-46.83,91.6c-6.86,15.68-13.17,31.58-18.87,47.68l-4.2,12.1
		c-1.37,4.04-2.67,8.11-4.01,12.16c-2.57,8.14-5.06,16.29-7.39,24.49c-18.68,65.59-28.25,133.54-28.28,201.56l0,6.38
		c-0.01,2.13-0.01,4.25,0.07,6.38l0.33,12.75c0.03,2.13,0.13,4.25,0.26,6.37l0.33,6.37c0.23,4.24,0.38,8.49,0.75,12.73l0.95,12.72
		l1.27,12.69c0.37,4.24,0.95,8.45,1.46,12.67c0.53,4.22,0.97,8.45,1.63,12.65l1.85,12.63l2.15,12.58c0.67,4.2,1.55,8.37,2.33,12.55
		l1.2,6.27l1.33,6.24c3.53,16.66,7.57,33.23,12.3,49.61c9.35,32.8,20.79,65.07,34.48,96.45c13.53,31.46,29.36,61.95,46.9,91.57
		l-11.67,7.73c-20.81-28.32-38.95-58.65-54.84-90.12c-15.76-31.55-29.24-64.31-40.08-97.99c-1.31-4.22-2.68-8.43-3.94-12.67
		l-3.71-12.74c-2.33-8.54-4.61-17.09-6.61-25.72c-4.07-17.23-7.64-34.61-10.3-52.13c-5.49-35.02-8.31-70.49-8.28-105.96
		c-0.11-70.94,10.97-141.91,32.67-209.28c1.39-4.2,2.69-8.43,4.16-12.6c1.48-4.17,2.9-8.35,4.43-12.5
		c1.55-4.14,3.07-8.29,4.66-12.41c1.62-4.11,3.23-8.23,4.91-12.31c6.74-16.33,14.06-32.41,21.95-48.18
		c15.97-31.44,34.11-61.77,55-90.04L224.56,143.5z"/>
</g>
<g>
	<path d="M1751.31,135.76c20.89,28.26,39.04,58.59,55,90.04c7.89,15.77,15.21,31.85,21.95,48.18c1.68,4.08,3.29,8.2,4.91,12.31
		c1.59,4.12,3.1,8.27,4.66,12.41c1.53,4.15,2.95,8.33,4.43,12.5c1.48,4.17,2.77,8.4,4.16,12.6c21.7,67.36,32.78,138.34,32.67,209.28
		c0.03,35.47-2.79,70.94-8.29,105.96c-2.66,17.53-6.23,34.9-10.3,52.13c-2.01,8.63-4.28,17.18-6.61,25.72l-3.71,12.74
		c-1.26,4.24-2.63,8.45-3.94,12.67c-10.84,33.68-24.32,66.44-40.08,97.99c-15.89,31.48-34.03,61.8-54.84,90.12l-11.67-7.73
		c17.54-29.61,33.37-60.11,46.9-91.57c13.7-31.38,25.13-63.65,34.48-96.45c4.72-16.39,8.76-32.95,12.3-49.61l1.33-6.24l1.2-6.27
		c0.77-4.19,1.65-8.35,2.33-12.55l2.15-12.58l1.85-12.63c0.66-4.2,1.1-8.43,1.63-12.65c0.51-4.22,1.09-8.43,1.46-12.67l1.27-12.69
		l0.95-12.72c0.37-4.24,0.52-8.48,0.75-12.73l0.33-6.37c0.12-2.12,0.22-4.24,0.26-6.37l0.33-12.75c0.08-2.12,0.07-4.25,0.07-6.38
		l0-6.38c-0.03-68.01-9.6-135.97-28.28-201.56c-2.33-8.2-4.83-16.36-7.39-24.49c-1.34-4.05-2.64-8.11-4.01-12.16l-4.2-12.1
		c-5.71-16.1-12.01-32-18.87-47.68c-13.51-31.46-29.34-61.95-46.83-91.6L1751.31,135.76z"/>
</g>
<path class="st7" d="M1344,187.3l24.24,59.17c0,0,52.75-39.21,129.03-25.66s58.46,104.08,58.46,104.08s-9.27,44.2-55.6,98.38
	c-46.34,54.18-63.45,96.95-66.3,113.35c-2.85,16.4,0.71,89.11,0.71,89.11h72.71c0,0-12.83-88.4,42.77-153.27
	c55.6-64.87,96.95-121.9,94.81-175.37c-2.14-53.47-11.41-99.8-78.42-134.02S1373.22,158.79,1344,187.3z"/>
<circle class="st7" cx="1470" cy="760.78" r="59.7"/>
<g id="XMLID_1_">
	<g>
		<path class="st8" d="M1265.58,286.6v63.24l-145.43-14.88l91.96,115.4l-60.59,34.93l-57.74-134.74l-64.16,134.74l-57.03-32.8
			l92.67-117.53l-143.29,15.59V286.6l143.29,16.19l-92.67-120.47l59.88-34.54l61.31,134.34c19.72-45.63,39.44-91.25,59.16-136.87
			l58.46,34.93l-91.96,121.9L1265.58,286.6z"/>
	</g>
	<g>
		<path class="st9" d="M1093.78,282.12c19.72-45.63,39.44-91.25,59.16-136.87l58.46,34.93l-91.96,121.9l146.14-15.48v63.24
			l-145.43-14.88l91.96,115.4l-60.59,34.93l-57.74-134.74l-64.16,134.74l-57.03-32.8l92.67-117.53l-143.29,15.59V286.6l143.29,16.19
			l-92.67-120.47l59.88-34.54L1093.78,282.12z"/>
	</g>
</g>
</svg>
