<svg enable-background="new 0 0 1885.58 939.17" viewBox="0 0 1885.58 939.17" xmlns="http://www.w3.org/2000/svg"><path d="m544.46 818.04c-79.65 0-391.94-8.5-527.51 15.29-5.76 3.51-10.92 7.82-15.22 13.11-7.75 9.3 12.41 24.81 24.81 24.81 35.66-1.55 68.23-17.06 103.89-4.65 7.75 3.1-4.65 9.3-9.3 12.41-15.51 9.3-32.56 4.65-48.07 9.3-4.65 1.55-13.96 4.65-9.3 12.41 10.85 21.71 40.32 10.85 58.92 0 13.96-7.75 29.46-3.1 43.42-1.55 6.2 1.55 4.65 7.75 1.55 12.41-7.75 7.75-21.71 7.75-24.81 15.51-3.1 13.96 20.16 12.41 29.46 9.3 15.23-7.03 31.34-5.2 44.32 2.79 72.92-2.21 172.09-12.48 326.61-27.05.06-.01 1.21-.11 1.24-.12 413.68-39.29 543.3-31.57 543.3-46.98-.01-25.95-243.25-46.99-543.31-46.99z" fill="#74cddd" opacity=".5"/><path d="m1741.54 49.08c96.32-83.37 207.11 70.3 90.76 125.1z" fill="#74cddd"/><path d="m1831.26 178.32-94.17-129.7 2.19-1.88c24.93-24.61 62.29-31.67 94.48-17.86 30.37 13.8 50.4 43.51 51.81 76.84.06 18.34-6.52 50.4-51.87 71.43zm-85.27-128.79 87.35 120.5c26.71-10.3 44.68-35.57 45.65-64.18-1.24-30.88-19.78-58.42-47.93-71.19-28.75-12.74-62.34-6.87-85.07 14.87z" fill="#010101"/><path d="m1799.83 128.18c17.21-10.96 27.72-24.71 15.12-43.59s-29.67-13.62-46.16-2.74z" fill="#010101"/><path d="m1397.73 164.98c-117.68-81.42 37.18-213.9 118.82-109.08z" fill="#74cddd"/><path d="m1398.04 169.32-2.52-.88c-33.47-23.38-48.68-53.33-42.77-84.2 8.22-33.65 34.77-59.75 68.55-67.42 36.9-8.59 75.3 6.24 96.86 37.4l1.96 2.5zm70.62-144.67c-14.79-5.13-30.75-5.85-45.94-2.07-31.23 6.98-55.81 31.05-63.47 62.12-5.14 27.5 8.13 54.35 37.64 75.74l113.46-105.3c-10.83-13.49-25.12-23.77-41.34-29.76z" fill="#010101"/><path d="m1419.08 121.11c-14.87-15.28-22.25-31.79-4.9-47.97 17.35-16.17 33.45-6.72 47.61 8.31z" fill="#010101"/><path d="m1844.32 218.72c4.06 18 30.89 144.49-24.31 273.03-69.08 160.86-228.67 225.65-378.06 287.39-142.64 58.99-259.54 75.25-360.82 88.63-328.14 43.37-551.87-9.07-551.59-13.26.34-5.43 383.07-61.33 416.87-94.45 14.37-14.08 20.07-28.55 20.07-28.56 3.64-11.46.68-19.82 7.43-32.86 9.21-17.8 50.72-25.57 47.53-25.41-54.54 2.67-46.52-9.74-28.73-13.27 3.44-.68 18.17-27.09 21-25.41 49.4-19.74 165.78-36.25 247.5-131.6 65.16-76.03 96.28-152.83 111.43-200.59 3.09.28 10.65.56 15.26-4.33 4.3-4.54 3.78-11.26 3.6-14.37-1.41-24-10.78-69.16-10.78-69.16s-4.74-22.84 3.32-61.92c15.43-74.88 125.37-115.3 133.74-118.27 76.8-27.24 187.3-23.86 260.24 45.12 44.35 41.96 55.93 93.3 66.3 139.29z" fill="#74cddd"/><path d="m1372.62 302.36c-15.15 47.76-46.27 124.56-111.43 200.59-81.72 95.35-198.09 111.86-247.5 131.6-2.82-1.67-17.55 24.73-21 25.41-17.79 3.54-25.8 15.94 28.73 13.27 3.19-.16-38.32 7.61-47.53 25.41-6.75 13.04-3.78 21.4-7.43 32.86 0 .02-5.69 14.48-20.07 28.56-33.8 33.12-416.53 89.02-416.87 94.45-.28 4.19 223.45 56.63 551.59 13.26 101.27-13.38 218.17-29.65 360.82-88.63 149.39-61.75 308.98-126.53 378.06-287.39 55.2-128.55 28.38-255.03 24.31-273.03-10.37-45.99-21.96-97.33-66.32-139.28-72.94-68.99-183.44-72.37-260.24-45.12-8.37 2.96-118.31 43.39-133.74 118.27-8.06 39.08-3.32 61.92-3.32 61.92s9.37 45.15 10.78 69.16c.19 3.12.7 9.83-3.6 14.37-4.59 4.88-12.15 4.6-15.24 4.32z" fill="none" stroke="#000" stroke-miterlimit="10" stroke-width="4"/><path d="m1611.33 181.51c16.74 97.23 175.66 71.6 152.86-26.53-20.47-87.96-158.4-63.62-152.86 26.53" fill="#fff"/><path d="m1686.93 245c-9.9.04-19.74-1.57-29.1-4.76-26-8.6-44.87-31.22-48.68-58.34-1.75-21.05 5.56-41.85 20.09-57.18 13.78-14.14 31.93-23.21 51.51-25.76 17.95-2.84 36.33.33 52.29 9.01 17.22 10.06 29.34 26.96 33.35 46.49 7.07 24.91-.62 51.67-19.83 69.03-16.63 14.16-37.81 21.8-59.63 21.51zm-73.28-63.75c3.6 25.45 21.31 46.66 45.72 54.73 28.98 9.69 60.92 3.65 84.35-15.97 17.7-16.33 24.8-41.17 18.42-64.39-8.22-36.43-44.01-59.64-80.62-52.29-39.94 3.43-69.96 37.9-67.87 77.92z" fill="#010101"/><path d="m1421.38 197.35c21.64 84.61 157.11 62.85 152.09-22.02-6.05-101.74-172.83-82.55-152.09 22.02" fill="#fff"/><path d="m1493.75 253.12c-13.78.1-27.36-3.22-39.54-9.66-17.63-9.55-30.33-26.19-34.9-45.72-6.86-26.9 2.6-55.33 24.21-72.76 26.04-19.87 60.73-24.29 90.92-11.59 24.64 10.77 40.74 34.92 41.21 61.82 2.7 45.07-33.1 71.35-67.35 77.27-4.82.58-9.69.8-14.55.64zm-69.8-56.28c9.27 37.25 46.7 60.17 84.09 51.51 32.45-5.15 66.32-29.88 63.75-72.25-.32-25.31-15.43-48.09-38.63-58.21-28.71-12.05-61.67-7.83-86.41 11.08-20.1 16.3-28.98 42.74-22.8 67.87z" fill="#010101"/><path d="m1630 298.83c1.24 13.41 1.24 26.9 0 40.31-3.77 4.77-9.11 8.06-15.07 9.27-7.45-1.14-13.8-6-16.87-12.88-.83-15.2-.44-30.45 1.16-45.59z" fill="#fff"/><path d="m1616.35 350.35h-.64c-8.32-1.29-15.39-6.8-18.67-14.55-1.07-10.4-1.07-20.89 0-31.29 0-4.76.77-9.79.9-14.68v-3.86l34.77 10.69v2.19c0 4.12 0 8.5.64 12.88 1.16 9.19 1.16 18.5 0 27.69v.64c-2.73 4.45-7.14 7.61-12.23 8.76l-3.99 1.55h-.78zm-14.94-16.23c2.62 5.97 8.02 10.26 14.42 11.46l3.61-1.42c3.88-.93 7.25-3.33 9.4-6.7 1.02-8.56 1.02-17.2 0-25.76 0-3.99 0-7.86-.64-11.72l-25.76-7.86c0 3.99 0 7.98-.77 11.85-1.14 9.96-1.27 20.02-.39 30.01z" fill="#010101"/><ellipse cx="1458.72" cy="183.44" fill="#010101" rx="22.92" ry="24.85"/><ellipse cx="1469.15" cy="189.11" fill="#fff" rx="5.41" ry="6.31"/><ellipse cx="1650.61" cy="177.26" fill="#010101" rx="22.54" ry="24.85"/><ellipse cx="1660.78" cy="182.93" fill="#fff" rx="5.28" ry="6.31"/><path d="m1565.61 296.9c-10.05 24.21 5.54 72.63 32.71 36.96-.83-15.2-.44-30.45 1.16-45.59z" fill="#fff"/><path d="m1579.65 348.93c-2.36.02-4.67-.6-6.7-1.8-10.95-6.31-17.77-32.2-10.05-51.51v-1.03l38.63-9.79v3.09c0 5.02 0 10.05-.9 14.81-1.05 10.1-1.05 20.29 0 30.39v1.67c-4.22 7.9-12.08 13.2-20.98 14.17zm-12.75-50.1c-5.54 15.07-1.16 38.63 8.5 44.17 6.95 3.99 14.68-2.96 20.09-9.92-.98-10.11-.98-20.29 0-30.39 0-3.73 0-7.73.77-11.59z" fill="#010101"/><path d="m1568.57 250.28c-16.21 1.54-28.11 15.94-26.56 32.15.3 3.13 1.09 6.18 2.35 9.06 12.88 23.18 41.47-2.06 59.24 0 20.48 0 37.35 21.64 53.83 3.86 18.29-19.83-7.86-38.63-28.33-47.78z" fill="#f6d2a2"/><path d="m1642.88 305.14c-6.55-.55-12.93-2.34-18.8-5.28-6.37-3.14-13.27-5.07-20.35-5.67-7.38 0-14.67 1.58-21.38 4.64-14.42 5.02-30.78 10.69-40.05-5.92-4.68-8.41-4.68-18.64 0-27.04 5.08-9.83 14.75-16.46 25.76-17.64l61.94-2.7c15.2 6.44 32.58 18.16 35.54 31.81 1.81 13.46-7.64 25.85-21.1 27.66-.51.05-1.03.11-1.56.14zm-38.63-15.58c7.61.62 15.04 2.67 21.89 6.05 11.59 4.89 20.73 8.63 30.01-1.42 4.3-3.95 6.29-9.83 5.28-15.58-2.58-11.85-18.93-22.67-32.32-28.33l-59.88 2.45c-9.36 1.15-17.55 6.83-21.89 15.2-3.87 7.01-3.87 15.52 0 22.54 7.34 12.88 20.48 8.63 34.51 3.86 7.04-3.16 14.67-4.78 22.4-4.77z" fill="#231f20"/><path d="m1565.61 249.38c-1.42-32.2 60.14-36.32 67.35-9.27s-64.39 33.22-67.35 9.27z" fill="#010101"/><g fill="#f6d2a2"><path d="m1378.45 304.1-.03.02c.02-.02 0-.03 0-.03.01 0 .01.01.03.01z"/><path d="m1029.41 647.5c-31.48 116.84-130.16 208.26-255.86 222.88-206.19 24-392.48-126.41-416.09-335.92-29.52-261.9 155.49-498.53 413.24-528.53 60.41-7.04 119.72-4.48 176.48 6.46 164.92 31.79 305.41 132.08 331.9 192.96 3.11 7.14 13.26 33.51 37.84 57.41 9.49 9.21 35.8 27.07 41.15 30.21.29.17 2.39 1.4 5.13 3.13 1.46.93 2.96 1.9 4.06 2.63 0 .12 1.26.89 1.62 1.08-.22-.15-.81-.56-1.62-1.08.08-.17 4.46 1.99 11.16 5.35 0 0 .02.02 0 .03l-374.81 127.13c-47.5-77.86-136.35-125.23-231.89-114.12-105.57 12.29-181.34 109.22-169.26 216.49 9.68 85.82 85.98 147.43 170.44 137.6 67.56-7.86 116.07-69.9 108.33-138.56-2.26-20.03-10.2-38.01-21.98-52.45l144.36-48.96c18.14 29.71 30.25 63.86 34.42 100.89 4.5 39.9 1.21 78.88-8.62 115.37z"/><path d="m1003.61 431.25 374.81-127.13c-1.9 189.79-157.17 342.86-349 343.38 9.83-36.49 13.11-75.47 8.62-115.36-4.18-37.03-16.28-71.18-34.43-100.89z"/><path d="m1367.26 298.73c.81.52 1.4.93 1.62 1.08-.36-.18-1.62-.96-1.62-1.08z"/><path d="m1003.61 431.25-144.36 48.96c-20.53-25.15-52.77-39.6-87.1-35.6-38.85 4.51-68.08 44.47-69.33 88.67l156.43-53.07c11.78 14.44 19.73 32.42 21.98 52.45 7.74 68.66-40.77 130.7-108.33 138.56-84.46 9.83-160.76-51.77-170.44-137.6-12.09-107.27 63.69-204.2 169.26-216.49 95.54-11.11 184.39 36.26 231.89 114.12z"/><path d="m859.25 480.21-156.43 53.07c1.25-44.2 30.48-84.16 69.33-88.67 34.33-4 66.56 10.46 87.1 35.6z"/></g><g fill="none" stroke="#000" stroke-miterlimit="10" stroke-width="4"><path d="m1378.42 304.12c-1.9 189.79-157.17 342.86-349 343.38"/><path d="m1378.45 300.57c0 1.18 0 2.34-.03 3.52"/><path d="m1368.96 299.86s-.03-.02-.08-.05c-.22-.15-.81-.56-1.62-1.08-1.09-.72-2.59-1.7-4.06-2.63-2.74-1.73-4.85-2.96-5.13-3.13-5.35-3.15-31.66-21.01-41.15-30.21-24.57-23.9-34.72-50.28-37.84-57.41-26.49-60.88-166.99-161.16-331.9-192.96-56.76-10.94-116.08-13.49-176.48-6.46-257.75 30-442.76 266.63-413.24 528.53 23.61 209.52 209.91 359.93 416.09 335.92 125.7-14.63 224.38-106.04 255.86-222.88 9.83-36.49 13.11-75.47 8.62-115.36-4.17-37.03-16.28-71.18-34.42-100.89-47.5-77.86-136.35-125.23-231.89-114.12-105.57 12.29-181.34 109.22-169.26 216.49 9.68 85.82 85.98 147.43 170.44 137.6 67.56-7.86 116.07-69.9 108.33-138.56-2.26-20.03-10.2-38.01-21.98-52.45-20.53-25.15-52.77-39.6-87.1-35.6-38.85 4.51-68.08 44.47-69.33 88.67"/><path d="m1378.45 304.1c-.02 0-.02-.02-.03-.02-6.7-3.37-11.08-5.52-11.16-5.35 0 .12 1.26.89 1.62 1.08"/></g><path d="m533.32 138.64c-37.56 37.56-49.73 101.4-39.15 111.97 10.58 10.58 32.28-43.02 69.83-80.58 37.56-37.56 82.23-52.05 71.66-62.62-10.58-10.57-64.79-6.33-102.34 31.23z" fill="#fcfcfc" opacity=".8"/><ellipse cx="450.5" cy="308.03" fill="#fcfcfc" opacity=".8" rx="11.61" ry="15.9"/><circle cx="427.99" cy="354.43" fill="#fcfcfc" opacity=".8" r="7.89"/><ellipse cx="707.03" cy="537.27" fill="#070707" rx="7.11" ry="11.98"/><path d="m864.84 492.32c-4.61-7.56-18.2-27.52-44.22-38.32-7.12-2.96-19.67-7.11-35.67-7.03-4.26.02-18.96.22-32.87 6.29-25.82 11.26-44.06 41.77-45.06 69.81-.19 5.28.26 10.44 1.22 15.46-.99-33.93 21.4-71.05 53.27-79.74 27.91-6.2 55.82 1.55 82.18 18.61 16.21 11.58 23.77 27.48 24.63 45.77 6.03 31.98-9.62 93.76-31.87 118.39 4.83-2.39 26.91-30.85 29.94-38.69 8.38-21.74 12.37-38.21 12.44-55.27.06-10.85-.15-32.57-13.99-55.28z" fill="#af9679"/><path d="m977.59 401.13c-19.61-21.98-33.1-37.11-55.27-51.07-41.51-26.15-82.93-29-105.38-30.54-18.07-1.24-40.9-2.62-69.64 4.97-11.13 2.94-39.2 11.47-68.17 34.08-34.03 26.57-51.2 58.46-59.34 77.57-15.91 37.36-15.8 69.31-15.56 86.44.38 27.67 5.78 42.61 7.36 46.77 7.58 19.95 19.26 33.56 27.02 41.25-6.79-14.15-18.82-32.11-21.74-56.19-3.01-24.79-2-45.88-1.11-51.4 3.65-22.61 9.17-43.96 14.92-56.03 10.92-22.94 29.83-46.1 42.01-58.93 39.59-41.71 117.98-55.73 181.29-41.5 80.79 18.15 120.72 86.21 130.7 101.47 42.3 64.67 39 130.25 37.14 157.81-5.66 83.89-54.63 152.23-72.22 173.54 32.74-26 54.68-63.89 61.9-79.59 8.6-18.7 13.53-38.57 16.94-52.27 3.15-12.7 6.42-26.09 8.12-44.27 1.01-10.83.29-13.09-.74-56.01-.77-32.01-.44-31.36-1.09-36.26-3.45-26.11-12.89-45.17-18.46-56.18-11.8-23.33-24.87-38.19-38.68-53.66z" fill="#af9679"/><path d="m949.91 12.39c-56.75-10.94-116.07-13.49-176.47-6.46-257.75 30-442.76 266.63-413.24 528.53 23.61 209.52 209.91 359.92 416.11 335.93 164.96-19.2 283.37-170.64 264.47-338.26-15.11-134.09-134.34-230.35-266.31-214.99-105.57 12.28-181.36 109.21-169.26 216.48 9.67 85.82 85.98 147.42 170.44 137.6 67.57-7.86 116.07-69.89 108.33-138.55-6.19-54.93-55.03-94.35-109.08-88.06-38.85 4.52-68.09 44.48-69.33 88.67" fill="none" stroke="#000" stroke-linecap="round" stroke-linejoin="round" stroke-width="4"/><path d="m1477.29 758.31c2.29 4.6-124.13 56.34-284.94 88.77-89.57 18.06-162.92 24.71-213.52 29.15-106.59 9.36-188 8.86-217.1 8.46-120.39-1.65-218.08-23.28-217.85-25.57.22-2.16 87.93 15.18 215.93 13.53 0 0 108.29-1.4 219.02-11.52 281.24-25.7 495.5-108.78 498.46-102.82z" fill="#3f747a" opacity=".8"/></svg>