<svg enable-background="new 0 0 1323.12 450.24" viewBox="0 0 1323.12 450.24" xmlns="http://www.w3.org/2000/svg"><path d="m413.25 418.18c-13.8 2.1-21.55 14.53-33.02 20.83-4.06 3.75-10.39 3.5-14.14-.57-.87-.94-1.55-2.03-2-3.23-1.62.04-3.17-.68-4.2-1.94-10.01-16.14 10.41-27.36 21.15-35.28 15.09-2.89 24.38 9.94 32.21 20.19z" fill="#f6d2a2" stroke="#000" stroke-miterlimit="10" stroke-width="2"/><path d="m364.09 435.22c0-4.2 2.9-7.61 6.49-7.61" fill="none" stroke="#000" stroke-miterlimit="10" stroke-width="2"/><path d="m573.92 351.26c10.6 7.64 30.05 30.74 14.11 41.96-15.28 16.31-23.91-17.92-37.36-22.59 5.23-9.8 13.59-16.77 23.25-19.37z" fill="#f6d2a2" stroke="#000" stroke-miterlimit="10" stroke-width="2"/><path d="m588.03 393.21c0-5.73-1.67-10.36-3.72-10.36" fill="none" stroke="#000" stroke-miterlimit="10" stroke-width="2"/><path d="m549.14 196.89c13.07.19 42.24 7.97 35.61 26.29-3.17 22.12-29.86-.98-43.56 2.9-1.34-11.02 1.52-21.52 7.95-29.19z" fill="#f6d2a2" stroke="#000" stroke-miterlimit="10" stroke-width="2"/><path d="m584.75 223.18c-3.28-4.69-7.31-7.54-8.99-6.36" fill="none" stroke="#000" stroke-miterlimit="10" stroke-width="2"/><path d="m345.57 23.04c15.18-4.86 57.56-18.42 97.07 1.98 13.69 7.07 22.48 15.87 26.96 20.41 5.3 5.39 32.33 32.86 33.26 71.62.38 15.77.15 15.77 2.4 27.72 4.49 23.94 28.67 38.09 39.41 47.09 36 30.15 49.62 96.28 36.53 143.32-19.29 69.32-104.27 90.06-110.44 91.84-36.24 10.47-83.3 13.12-114.31-13.12-36.39-30.72-43.87-91.41-56.14-134.67-18.45-65.02-49.34-96.32-46.64-151.87.84-17.24 3.79-28.43 7.86-37.91 19.63-45.8 69.43-61.73 84.04-66.41z" fill="#74cddd" stroke="#000" stroke-miterlimit="10" stroke-width="2"/><ellipse cx="407.83" cy="105.67" fill="#fff" rx="41.78" ry="45.52" stroke="#000" stroke-miterlimit="10" stroke-width="2" transform="matrix(.8214 -.5703 .5703 .8214 12.5562 251.4523)"/><path d="m492.01 109.11c-2.26 1.93-3.32 1.93-3.44 2.92-.08.65.36.88 1.66 2.75 1.45 2.07 1.22 2.22 2.46 3.9 1.22 1.64 1.83 2.46 2.92 3.1.49.28 2.74 1.58 4.47.63 2.03-1.12 1.81-4.48 1.78-4.93-.15-1.92-1.15-3.35-3.15-6.19-1.27-1.8-1.23-1.25-2.58-3.15-.49-.69-.7-1.05-1.15-1.15-.81-.18-1.38.76-2.97 2.12z" fill="#fcfcfc" stroke="#000" stroke-miterlimit="10" stroke-width="2"/><path d="m485.35 114.47c-2.26 1.93-3.32 1.93-3.44 2.92-.08.65.36.88 1.66 2.75 1.45 2.07 1.22 2.22 2.46 3.9 1.22 1.64 1.83 2.46 2.92 3.1.49.28 2.74 1.58 4.47.63 2.03-1.12 1.81-4.48 1.78-4.93-.15-1.92-1.15-3.35-3.15-6.19-1.27-1.8-1.23-1.25-2.58-3.15-.49-.69-.7-1.05-1.15-1.15-.81-.18-1.38.75-2.97 2.12z" fill="#fcfcfc" stroke="#000" stroke-miterlimit="10" stroke-width="2"/><ellipse cx="442.49" cy="99.56" fill="#fff" rx="3" ry="3.58" transform="matrix(.9501 -.3118 .3118 .9501 -8.9823 142.9334)"/><path d="m490.43 44.66c10.94 12.15 18.72 32.23 12.18 38.87-7.05 7.16-30.06-1.93-43.89-15.61-12.41-12.27-22.31-33.07-15.99-40.17 6.85-7.68 32.95.53 47.7 16.91z" fill="#fff" stroke="#000" stroke-miterlimit="10" stroke-width="2"/><path d="m454.86 128.37c-2.2-3.55-2.46-6.91-2.51-7.73-.06-1.04-.26-6.03 3-10.35.64-.84 2.12-1.98 5.1-4.27 3.75-2.88 7.57-5.55 11.16-8.36 4.19-3.29 3.65-3.96 8.05-7.45 4.11-3.26 6.39-4.31 8.27-4.92.9-.3 3.3-1.04 6.49-1.07 2.68-.02 6.14-.06 9.03 2.18 2.28 1.77 3.23 4.02 3.5 4.7 2.43 6.18-1.65 12.5-1.83 12.78-4.68 7.03-11.48 3.32-17.43 9.69-6.05 6.48-1.74 13.21-8.42 19.03-3.27 2.84-8.15 4.59-13.07 3.78-6.47-1.06-10.1-6-11.34-8.01z" fill="#f6d2a2" stroke="#000" stroke-miterlimit="10" stroke-width="2"/><path d="m462.18 111.8c-12.64-13.25 12.17-38.01 25.36-29.13s-15.14 38.28-25.36 29.13z" fill="#010101"/><ellipse cx="478.1" cy="65.51" fill="#fff" rx="1.9" ry="3.76" transform="matrix(.5768 -.8169 .8169 .5768 148.8245 418.2762)"/><path d="m408.26 90.99c17.32.28 24.8-.23 27.63-.99.21-.06 1.11-.3 1.26-.04.39.71-5.34 4.3-11.52 9.11-2.91 2.26-6.24 5.05-9.8 8.43" fill="none" stroke="#000" stroke-miterlimit="10" stroke-width="3"/><path d="m487.14 58.44c-11.16 6.23-15.73 9.36-17.23 10.93-.11.12-.59.62-.78.5-.54-.34 1.68-4.95 3.69-10.57.94-2.64 1.95-5.8 2.87-9.46" fill="none" stroke="#000" stroke-miterlimit="10" stroke-width="3"/><path d="m297.51 147.21 31-57.74c-45.34-29.29-87.03 42.24-31 57.74z" fill="#74cddd" stroke="#000" stroke-miterlimit="10" stroke-width="2"/><circle cx="305.39" cy="117.38" r="12.55" stroke="#000" stroke-miterlimit="10" stroke-width="2"/><ellipse cx="313.82" cy="117.5" fill="#74cddd" rx="36.73" ry="6.88" transform="matrix(.471 -.8821 .8821 .471 62.3501 338.981)"/><path d="m1067.53 417.69c13.8 2.1 21.55 14.53 33.02 20.83 4.06 3.75 10.39 3.5 14.14-.57.87-.94 1.55-2.03 2-3.23 1.62.04 3.17-.68 4.2-1.94 10.01-16.14-10.41-27.36-21.15-35.28-15.09-2.9-24.38 9.94-32.21 20.19z" fill="#f6d2a2" stroke="#000" stroke-miterlimit="10" stroke-width="2"/><path d="m1116.69 434.72c0-4.2-2.9-7.61-6.49-7.61" fill="none" stroke="#000" stroke-miterlimit="10" stroke-width="2"/><path d="m906.86 350.76c-10.6 7.64-30.05 30.74-14.11 41.96 15.28 16.31 23.91-17.92 37.36-22.59-5.22-9.8-13.59-16.77-23.25-19.37z" fill="#f6d2a2" stroke="#000" stroke-miterlimit="10" stroke-width="2"/><path d="m892.75 392.72c0-5.73 1.67-10.36 3.72-10.36" fill="none" stroke="#000" stroke-miterlimit="10" stroke-width="2"/><path d="m931.64 196.39c-13.07.19-42.24 7.97-35.61 26.29 3.17 22.12 29.86-.98 43.56 2.9 1.34-11.01-1.52-21.52-7.95-29.19z" fill="#f6d2a2" stroke="#000" stroke-miterlimit="10" stroke-width="2"/><path d="m896.03 222.69c3.28-4.69 7.31-7.54 8.99-6.36" fill="none" stroke="#000" stroke-miterlimit="10" stroke-width="2"/><path d="m1135.21 21.81c-15.18-4.86-57.56-18.42-97.07 1.98-13.69 7.07-22.48 15.87-26.96 20.41-5.3 5.39-32.33 32.86-33.26 71.62-.38 15.77-.15 15.77-2.4 27.72-4.49 23.94-28.67 38.09-39.41 47.09-36 30.15-49.62 96.28-36.53 143.32 19.29 69.32 104.27 90.06 110.44 91.84 36.24 10.47 83.3 13.12 114.31-13.12 36.39-30.72 43.87-91.41 56.14-134.67 18.45-65.02 49.34-96.32 46.64-151.87-.84-17.24-3.79-28.43-7.86-37.91-19.63-45.79-69.43-61.73-84.04-66.41z" fill="#74cddd" stroke="#000" stroke-miterlimit="10" stroke-width="2"/><ellipse cx="1072.95" cy="105.18" fill="#fff" rx="45.52" ry="41.78" stroke="#000" stroke-miterlimit="10" stroke-width="2" transform="matrix(.5703 -.8214 .8214 .5703 374.6576 926.562)"/><path d="m988.77 108.61c2.26 1.93 3.32 1.93 3.44 2.92.08.65-.36.88-1.66 2.75-1.45 2.07-1.22 2.22-2.46 3.9-1.22 1.64-1.83 2.46-2.92 3.1-.49.28-2.74 1.58-4.47.63-2.03-1.12-1.81-4.48-1.78-4.93.15-1.92 1.15-3.35 3.15-6.19 1.27-1.8 1.23-1.25 2.58-3.15.49-.69.7-1.05 1.15-1.15.81-.18 1.38.76 2.97 2.12z" fill="#fcfcfc" stroke="#000" stroke-miterlimit="10" stroke-width="2"/><path d="m995.43 113.97c2.26 1.93 3.32 1.93 3.44 2.92.08.65-.36.88-1.66 2.75-1.45 2.07-1.22 2.22-2.47 3.9-1.22 1.64-1.83 2.46-2.92 3.1-.49.28-2.74 1.58-4.47.63-2.03-1.12-1.81-4.48-1.78-4.93.15-1.92 1.15-3.35 3.15-6.19 1.27-1.8 1.23-1.25 2.58-3.15.49-.69.7-1.05 1.15-1.15.82-.18 1.39.76 2.98 2.12z" fill="#fcfcfc" stroke="#000" stroke-miterlimit="10" stroke-width="2"/><ellipse cx="1038.29" cy="99.06" fill="#fff" rx="3.58" ry="3" transform="matrix(.3118 -.9501 .9501 .3118 620.4252 1054.7031)"/><path d="m990.35 44.17c-10.94 12.15-18.72 32.23-12.18 38.87 7.05 7.16 30.06-1.93 43.89-15.61 12.41-12.27 22.31-33.07 15.99-40.17-6.85-7.68-32.95.53-47.7 16.91z" fill="#fff" stroke="#000" stroke-miterlimit="10" stroke-width="2"/><path d="m1025.92 127.87c2.2-3.55 2.46-6.91 2.51-7.73.06-1.04.26-6.03-3-10.35-.64-.84-2.12-1.98-5.1-4.27-3.75-2.88-7.57-5.55-11.16-8.36-4.19-3.29-3.65-3.96-8.05-7.45-4.11-3.26-6.39-4.31-8.27-4.92-.9-.3-3.3-1.04-6.49-1.07-2.68-.02-6.14-.06-9.03 2.18-2.28 1.77-3.23 4.02-3.5 4.7-2.43 6.18 1.65 12.5 1.83 12.78 4.68 7.03 11.48 3.32 17.43 9.69 6.05 6.48 1.74 13.21 8.42 19.03 3.27 2.84 8.15 4.59 13.07 3.78 6.47-1.06 10.1-5.99 11.34-8.01z" fill="#f6d2a2" stroke="#000" stroke-miterlimit="10" stroke-width="2"/><path d="m1018.6 111.31c12.64-13.25-12.17-38.01-25.36-29.13-13.19 8.87 15.14 38.27 25.36 29.13z" fill="#010101"/><ellipse cx="1002.68" cy="65.01" fill="#fff" rx="3.76" ry="1.9" transform="matrix(.8169 -.5768 .5768 .8169 146.1008 590.2408)"/><path d="m1072.52 90.5c-17.32.28-24.8-.23-27.63-.99-.21-.06-1.11-.3-1.26-.04-.39.71 5.34 4.3 11.52 9.11 2.91 2.26 6.24 5.05 9.8 8.43" fill="none" stroke="#000" stroke-miterlimit="10" stroke-width="3"/><path d="m993.64 57.94c11.16 6.23 15.73 9.36 17.23 10.93.11.12.59.62.78.5.54-.34-1.68-4.95-3.69-10.57-.94-2.64-1.95-5.8-2.87-9.46" fill="none" stroke="#000" stroke-miterlimit="10" stroke-width="3"/><path d="m1183.27 146.72-31-57.74c45.34-29.29 87.03 42.24 31 57.74z" fill="#74cddd" stroke="#000" stroke-miterlimit="10" stroke-width="2"/><circle cx="1175.39" cy="116.89" r="12.55" stroke="#000" stroke-miterlimit="10" stroke-width="2"/><ellipse cx="1166.96" cy="117.01" fill="#74cddd" rx="6.88" ry="36.73" transform="matrix(.8821 -.471 .471 .8821 82.4557 563.4775)"/><g stroke-miterlimit="10"><path d="m545.81 250.31c-2.53-.01-3.56-2.41-2.28-5.32l8.05-18.31c1.28-2.91 4.4-5.28 6.93-5.27 2.53.01 3.56 2.41 2.28 5.32l-8.05 18.31c-1.28 2.92-4.4 5.29-6.93 5.27z" fill="#fafc9a" stroke="#c69c6d"/><path d="m555.02 250.36c-2.53-.01-3.56-2.41-2.28-5.32l8.05-18.31c1.28-2.91 4.4-5.28 6.93-5.27 2.53.01 3.56 2.41 2.28 5.32l-8.05 18.31c-1.28 2.92-4.4 5.29-6.93 5.27z" fill="#fafc9a" stroke="#c69c6d"/><path d="m564.23 250.41c-2.53-.01-3.56-2.41-2.28-5.32l8.05-18.31c1.28-2.91 4.4-5.28 6.93-5.27 2.53.01 3.56 2.41 2.28 5.32l-8.05 18.31c-1.27 2.92-4.39 5.29-6.93 5.27z" fill="#fafc9a" stroke="#c69c6d"/><path d="m573.45 250.46c-2.53-.01-3.56-2.41-2.28-5.32l8.05-18.31c1.28-2.91 4.4-5.28 6.93-5.27 2.53.01 3.56 2.41 2.28 5.32l-8.05 18.31c-1.28 2.92-4.4 5.29-6.93 5.27z" fill="#fafc9a" stroke="#c69c6d"/><path d="m582.66 250.51c-2.53-.01-3.56-2.41-2.28-5.32l8.05-18.31c1.28-2.91 4.4-5.28 6.93-5.27 2.53.01 3.56 2.41 2.28 5.32l-8.05 18.31c-1.28 2.92-4.4 5.29-6.93 5.27z" fill="#fafc9a" stroke="#c69c6d"/><path d="m591.87 250.56c-2.53-.01-3.56-2.41-2.28-5.32l8.05-18.31c1.28-2.91 4.4-5.28 6.93-5.27 2.53.01 3.56 2.41 2.28 5.32l-8.05 18.31c-1.28 2.92-4.4 5.29-6.93 5.27z" fill="#fafc9a" stroke="#c69c6d"/><path d="m601.45 250.19c-2.53-.01-3.56-2.41-2.28-5.32l8.05-18.31c1.28-2.91 4.4-5.28 6.93-5.27 2.53.01 3.56 2.41 2.28 5.32l-8.05 18.31c-1.28 2.91-4.4 5.28-6.93 5.27z" fill="#fafc9a" stroke="#c69c6d"/><path d="m610.66 250.24c-2.53-.01-3.56-2.41-2.28-5.32l8.05-18.31c1.28-2.91 4.4-5.28 6.93-5.27 2.53.01 3.56 2.41 2.28 5.32l-8.05 18.31c-1.28 2.91-4.4 5.28-6.93 5.27z" fill="#fafc9a" stroke="#c69c6d"/><path d="m619.87 250.29c-2.53-.01-3.56-2.41-2.28-5.32l8.05-18.31c1.28-2.91 4.4-5.28 6.93-5.27 2.53.01 3.56 2.41 2.28 5.32l-8.05 18.31c-1.28 2.91-4.4 5.28-6.93 5.27z" fill="#fafc9a" stroke="#c69c6d"/><path d="m629.08 250.34c-2.53-.01-3.56-2.41-2.28-5.32l8.05-18.31c1.28-2.91 4.4-5.28 6.93-5.27 2.53.01 3.56 2.41 2.28 5.32l-8.05 18.31c-1.27 2.91-4.39 5.28-6.93 5.27z" fill="#fafc9a" stroke="#c69c6d"/><path d="m638.3 250.39c-2.53-.01-3.56-2.41-2.28-5.32l8.05-18.31c1.28-2.91 4.4-5.28 6.93-5.27 2.53.01 3.56 2.41 2.28 5.32l-8.05 18.31c-1.28 2.91-4.4 5.28-6.93 5.27z" fill="#fafc9a" stroke="#c69c6d"/><path d="m647.51 250.44c-2.53-.01-3.56-2.41-2.28-5.32l8.05-18.31c1.28-2.91 4.4-5.28 6.93-5.27 2.53.01 3.56 2.41 2.28 5.32l-8.05 18.31c-1.28 2.91-4.4 5.28-6.93 5.27z" fill="#fafc9a" stroke="#c69c6d"/><path d="m657.46 250.24c-2.53-.01-3.56-2.41-2.28-5.32l8.05-18.31c1.28-2.91 4.4-5.28 6.93-5.27 2.53.01 3.56 2.41 2.28 5.32l-8.05 18.31c-1.28 2.91-4.4 5.28-6.93 5.27z" fill="#fafc9a" stroke="#c69c6d"/><path d="m666.67 250.29c-2.53-.01-3.56-2.41-2.28-5.32l8.05-18.31c1.28-2.91 4.4-5.28 6.93-5.27 2.53.01 3.56 2.41 2.28 5.32l-8.05 18.31c-1.28 2.91-4.4 5.28-6.93 5.27z" fill="#fafc9a" stroke="#c69c6d"/><path d="m675.88 250.34c-2.53-.01-3.56-2.41-2.28-5.32l8.05-18.31c1.28-2.91 4.4-5.28 6.93-5.27 2.53.01 3.56 2.41 2.28 5.32l-8.05 18.31c-1.27 2.91-4.39 5.28-6.93 5.27z" fill="#fafc9a" stroke="#c69c6d"/><path d="m685.1 250.39c-2.53-.01-3.56-2.41-2.28-5.32l8.05-18.31c1.28-2.91 4.4-5.28 6.93-5.27 2.53.01 3.56 2.41 2.28 5.32l-8.05 18.31c-1.28 2.91-4.4 5.28-6.93 5.27z" fill="#fafc9a" stroke="#c69c6d"/><path d="m694.31 250.44c-2.53-.01-3.56-2.41-2.28-5.32l8.05-18.31c1.28-2.91 4.4-5.28 6.93-5.27 2.53.01 3.56 2.41 2.28 5.32l-8.05 18.31c-1.28 2.91-4.4 5.28-6.93 5.27z" fill="#fafc9a" stroke="#c69c6d"/><path d="m703.52 250.49c-2.53-.01-3.56-2.41-2.28-5.32l8.05-18.31c1.28-2.91 4.4-5.28 6.93-5.27 2.53.01 3.56 2.41 2.28 5.32l-8.05 18.31c-1.28 2.91-4.4 5.28-6.93 5.27z" fill="#fafc9a" stroke="#c69c6d"/><path d="m712.11 249.94c-2.53-.01-3.56-2.41-2.28-5.32l8.05-18.31c1.28-2.91 4.4-5.28 6.93-5.27 2.53.01 3.56 2.41 2.28 5.32l-8.05 18.31c-1.28 2.91-4.4 5.28-6.93 5.27z" fill="#fafc9a" stroke="#c69c6d"/><path d="m721.32 249.99c-2.53-.01-3.56-2.41-2.28-5.32l8.05-18.31c1.28-2.91 4.4-5.28 6.93-5.27 2.53.01 3.56 2.41 2.28 5.32l-8.05 18.31c-1.28 2.91-4.4 5.28-6.93 5.27z" fill="#fafc9a" stroke="#c69c6d"/><path d="m730.53 250.04c-2.53-.01-3.56-2.41-2.28-5.32l8.05-18.31c1.28-2.91 4.4-5.28 6.93-5.27 2.53.01 3.56 2.41 2.28 5.32l-8.05 18.31c-1.28 2.91-4.4 5.28-6.93 5.27z" fill="#fafc9a" stroke="#c69c6d"/><path d="m739.74 250.08c-2.53-.01-3.56-2.41-2.28-5.32l8.05-18.31c1.28-2.91 4.4-5.28 6.93-5.27 2.53.01 3.56 2.41 2.28 5.32l-8.05 18.31c-1.27 2.92-4.39 5.29-6.93 5.27z" fill="#fafc9a" stroke="#c69c6d"/><path d="m748.96 250.13c-2.53-.01-3.56-2.41-2.28-5.32l8.05-18.31c1.28-2.91 4.4-5.28 6.93-5.27 2.53.01 3.56 2.41 2.28 5.32l-8.05 18.31c-1.28 2.92-4.4 5.29-6.93 5.27z" fill="#fafc9a" stroke="#c69c6d"/><path d="m758.17 250.18c-2.53-.01-3.56-2.41-2.28-5.32l8.05-18.31c1.28-2.91 4.4-5.28 6.93-5.27 2.53.01 3.56 2.41 2.28 5.32l-8.05 18.31c-1.28 2.92-4.4 5.29-6.93 5.27z" fill="#fafc9a" stroke="#c69c6d"/><path d="m767.74 249.81c-2.53-.01-3.56-2.41-2.28-5.32l8.05-18.31c1.28-2.91 4.4-5.28 6.93-5.27 2.53.01 3.56 2.41 2.28 5.32l-8.05 18.31c-1.27 2.92-4.39 5.29-6.93 5.27z" fill="#fafc9a" stroke="#c69c6d"/><path d="m776.96 249.86c-2.53-.01-3.56-2.41-2.28-5.32l8.05-18.31c1.28-2.91 4.4-5.28 6.93-5.27 2.53.01 3.56 2.41 2.28 5.32l-8.05 18.31c-1.28 2.92-4.4 5.29-6.93 5.27z" fill="#fafc9a" stroke="#c69c6d"/><path d="m786.17 249.91c-2.53-.01-3.56-2.41-2.28-5.32l8.05-18.31c1.28-2.91 4.4-5.28 6.93-5.27 2.53.01 3.56 2.41 2.28 5.32l-8.05 18.31c-1.28 2.91-4.4 5.29-6.93 5.27z" fill="#fafc9a" stroke="#c69c6d"/><path d="m795.38 249.96c-2.53-.01-3.56-2.41-2.28-5.32l8.05-18.31c1.28-2.91 4.4-5.28 6.93-5.27 2.53.01 3.56 2.41 2.28 5.32l-8.05 18.31c-1.27 2.91-4.4 5.28-6.93 5.27z" fill="#fafc9a" stroke="#c69c6d"/><path d="m804.59 250.01c-2.53-.01-3.56-2.41-2.28-5.32l8.05-18.31c1.28-2.91 4.4-5.28 6.93-5.27 2.53.01 3.56 2.41 2.28 5.32l-8.05 18.31c-1.27 2.91-4.39 5.28-6.93 5.27z" fill="#fafc9a" stroke="#c69c6d"/><path d="m813.81 250.06c-2.53-.01-3.56-2.41-2.28-5.32l8.05-18.31c1.28-2.91 4.4-5.28 6.93-5.27 2.53.01 3.56 2.41 2.28 5.32l-8.05 18.31c-1.28 2.91-4.4 5.28-6.93 5.27z" fill="#fafc9a" stroke="#c69c6d"/><path d="m823.76 249.86c-2.53-.01-3.56-2.41-2.28-5.32l8.05-18.31c1.28-2.91 4.4-5.28 6.93-5.27 2.53.01 3.56 2.41 2.28 5.32l-8.05 18.31c-1.28 2.92-4.4 5.29-6.93 5.27z" fill="#fafc9a" stroke="#c69c6d"/><path d="m832.97 249.91c-2.53-.01-3.56-2.41-2.28-5.32l8.05-18.31c1.28-2.91 4.4-5.28 6.93-5.27 2.53.01 3.56 2.41 2.28 5.32l-8.05 18.31c-1.28 2.91-4.4 5.29-6.93 5.27z" fill="#fafc9a" stroke="#c69c6d"/><path d="m842.18 249.96c-2.53-.01-3.56-2.41-2.28-5.32l8.05-18.31c1.28-2.91 4.4-5.28 6.93-5.27 2.53.01 3.56 2.41 2.28 5.32l-8.05 18.31c-1.28 2.91-4.4 5.28-6.93 5.27z" fill="#fafc9a" stroke="#c69c6d"/><path d="m851.39 250.01c-2.53-.01-3.56-2.41-2.28-5.32l8.05-18.31c1.28-2.91 4.4-5.28 6.93-5.27 2.53.01 3.56 2.41 2.28 5.32l-8.05 18.31c-1.27 2.91-4.39 5.28-6.93 5.27z" fill="#fafc9a" stroke="#c69c6d"/><path d="m860.61 250.06c-2.53-.01-3.56-2.41-2.28-5.32l8.05-18.31c1.28-2.91 4.4-5.28 6.93-5.27 2.53.01 3.56 2.41 2.28 5.32l-8.05 18.31c-1.28 2.91-4.4 5.28-6.93 5.27z" fill="#fafc9a" stroke="#c69c6d"/><path d="m869.82 250.11c-2.53-.01-3.56-2.41-2.28-5.32l8.05-18.31c1.28-2.91 4.4-5.28 6.93-5.27 2.53.01 3.56 2.41 2.28 5.32l-8.05 18.31c-1.28 2.91-4.4 5.28-6.93 5.27z" fill="#fafc9a" stroke="#c69c6d"/><path d="m879.02 249.74c-2.53-.01-3.56-2.41-2.28-5.32l8.05-18.31c1.28-2.91 4.4-5.28 6.93-5.27 2.53.01 3.56 2.41 2.28 5.32l-8.05 18.31c-1.28 2.91-4.4 5.28-6.93 5.27z" fill="#fafc9a" stroke="#c69c6d"/><path d="m888.23 249.79c-2.53-.01-3.56-2.41-2.28-5.32l8.05-18.31c1.28-2.91 4.4-5.28 6.93-5.27 2.53.01 3.56 2.41 2.28 5.32l-8.05 18.31c-1.27 2.91-4.39 5.28-6.93 5.27z" fill="#fafc9a" stroke="#c69c6d"/><path d="m897.45 249.84c-2.53-.01-3.56-2.41-2.28-5.32l8.05-18.31c1.28-2.91 4.4-5.28 6.93-5.27 2.53.01 3.56 2.41 2.28 5.32l-8.05 18.31c-1.28 2.91-4.4 5.28-6.93 5.27z" fill="#fafc9a" stroke="#c69c6d"/><path d="m906.66 249.89c-2.53-.01-3.56-2.41-2.28-5.32l8.05-18.31c1.28-2.91 4.4-5.28 6.93-5.27 2.53.01 3.56 2.41 2.28 5.32l-8.05 18.31c-1.28 2.91-4.4 5.28-6.93 5.27z" fill="#fafc9a" stroke="#c69c6d"/><path d="m915.87 249.94c-2.53-.01-3.56-2.41-2.28-5.32l8.05-18.31c1.28-2.91 4.4-5.28 6.93-5.27 2.53.01 3.56 2.41 2.28 5.32l-8.05 18.31c-1.28 2.91-4.4 5.28-6.93 5.27z" fill="#fafc9a" stroke="#c69c6d"/><path d="m925.08 249.99c-2.53-.01-3.56-2.41-2.28-5.32l8.05-18.31c1.28-2.91 4.4-5.28 6.93-5.27 2.53.01 3.56 2.41 2.28 5.32l-8.05 18.31c-1.27 2.91-4.39 5.28-6.93 5.27z" fill="#fafc9a" stroke="#c69c6d"/><path d="m930.38 248.62c-2.62-.42-3.37-2.75-1.67-5.16l10.71-15.18c1.7-2.41 5.24-4.04 7.86-3.62 2.62.42 3.37 2.75 1.67 5.16l-10.71 15.18c-1.7 2.42-5.23 4.05-7.86 3.62z" fill="#fafc9a" stroke="#c69c6d"/><path d="m939.84 250.78c-2.68-.43-3.45-2.81-1.71-5.28l10.97-15.54c1.74-2.47 5.37-4.14 8.05-3.7 2.68.43 3.45 2.81 1.71 5.28l-10.97 15.54c-1.74 2.47-5.36 4.13-8.05 3.7z" fill="#fafc9a" stroke="#c69c6d"/><path d="m949.61 252.36c-2.68-.43-3.45-2.81-1.71-5.28l10.97-15.54c1.74-2.47 5.37-4.14 8.05-3.7 2.68.43 3.45 2.81 1.71 5.28l-10.97 15.54c-1.75 2.47-5.37 4.14-8.05 3.7z" fill="#fafc9a" stroke="#c69c6d"/><path d="m959.12 252.79c-2.58-.42-3.32-2.7-1.64-5.08l10.54-14.93c1.68-2.37 5.16-3.97 7.74-3.56 2.58.42 3.32 2.7 1.64 5.08l-10.54 14.93c-1.68 2.38-5.16 3.98-7.74 3.56z" fill="#fafc9a" stroke="#c69c6d"/><path d="m968.01 207.01c-6.69.7-14.82 2.17-23.73 5.16-5.46 1.83-10.29 3.93-14.45 6.02-.98.43-3.64 1.78-5.16 4.82-.29.57-2.44 5.06-.05 8.63.88 1.31 2.05 2.02 2.82 2.4-1 1.28-1.36 2.95-.96 4.52 1.6 4.23 3.89 6.34 5.46 7.43 7.65 5.29 21.32 2.25 33.14-8.53 1.82-1.08 4.45-2.95 6.42-5.74.65-.93 1.11-1.79 1.2-1.95 0 0 1.33-2.45 1.83-5.22 1.56-8.71-5.53-16.48-6.52-17.54z" fill="#f6d2a2" stroke="#000" stroke-width="2"/><path d="m927.44 234.03c3.37 2.51 7.83 2.22 9.98-.65" fill="none" stroke="#000" stroke-width="2"/><path d="m543.25 250.78c2.68-.43 3.45-2.81 1.71-5.28l-10.97-15.54c-1.74-2.47-5.37-4.14-8.05-3.7-2.68.43-3.45 2.81-1.71 5.28l10.97 15.54c1.74 2.47 5.36 4.13 8.05 3.7z" fill="#fafc9a" stroke="#c69c6d"/><path d="m537.58 252.66c1.12-.04 2-.81 2.13-1.68.16-1.09-.85-2.34-2.32-2.33-3.82-5.19-7.64-10.38-11.46-15.57-2.02-2.25-5.82-3.47-8.43-2.72s-3.1 3.2-1.07 5.45l12.73 14.13c.47.49 1.2 1.15 2.22 1.72.35.2.98.52 1.77.76 1.77.55 3.39.42 4.43.24z" fill="#fafc9a" stroke="#c69c6d"/><path d="m533.04 255.65c.47-.18 1.84-.78 1.98-1.85.15-1.07-.97-2.35-2.86-3.05-4.12-4.55-8.23-9.11-12.35-13.66-2.2-2.07-6.08-2.98-8.63-2.02-2.54.96-2.83 3.44-.62 5.52l13.84 13.04c2.21 2.07 6.1 2.98 8.64 2.02z" fill="#fafc9a" stroke="#c69c6d"/><path d="m528.26 259.95c.49-.21 1.75-.83 1.91-1.93s-.86-2.4-2.59-3.15c-4.42-4.32-8.84-8.63-13.26-12.95-2.28-1.99-6.2-2.74-8.7-1.68s-2.69 3.55-.41 5.54l14.35 12.49c2.28 1.99 6.2 2.74 8.7 1.68z" fill="#fafc9a" stroke="#c69c6d"/><path d="m524.52 262.74c.49-.32 1.6-1.14 1.54-2.23-.05-.97-.99-1.88-2.38-2.31-5.35-3.59-10.7-7.18-16.04-10.77-2.59-1.56-6.58-1.62-8.86-.14s-2.03 3.97.57 5.52l16.31 9.79c2.59 1.56 6.58 1.63 8.86.14z" fill="#fafc9a" stroke="#c69c6d"/><path d="m522.88 266.94c.45-.39 1.42-1.35 1.22-2.42-.18-.95-1.24-1.73-2.67-1.96-5.79-2.82-11.58-5.64-17.37-8.45-2.78-1.18-6.74-.69-8.8 1.09-2.05 1.78-1.46 4.21 1.32 5.39l17.5 7.45c2.79 1.17 6.75.68 8.8-1.1z" fill="#fafc9a" stroke="#c69c6d"/><path d="m519.63 271.27c.4-.44 1.26-1.51.93-2.55-.29-.92-1.44-1.57-2.89-1.63-6.08-2.12-12.17-4.23-18.25-6.35-2.9-.85-6.78.11-8.61 2.12s-.95 4.35 1.95 5.2l18.26 5.33c2.91.85 6.78-.11 8.61-2.12z" fill="#fafc9a" stroke="#c69c6d"/><path d="m519.14 274.4c1.24-2.21-.32-4.28-3.49-4.62l-19.89-2.09c-3.16-.33-6.77 1.2-8.01 3.41-1.24 2.21.32 4.28 3.49 4.62l19.89 2.09c3.16.33 6.76-1.2 8.01-3.41z" fill="#fafc9a" stroke="#c69c6d"/><path d="m518.05 281.72c1.19-2.24-.44-4.27-3.61-4.52l-19.94-1.56c-3.17-.25-6.73 1.38-7.92 3.62-1.19 2.24.44 4.27 3.61 4.52l19.94 1.56c3.17.24 6.73-1.38 7.92-3.62z" fill="#fafc9a" stroke="#c69c6d"/><path d="m516.51 290.27c1.19-2.24-.44-4.27-3.61-4.52l-19.94-1.56c-3.17-.25-6.73 1.38-7.92 3.62-1.19 2.24.44 4.27 3.61 4.52l19.94 1.56c3.17.24 6.74-1.39 7.92-3.62z" fill="#fafc9a" stroke="#c69c6d"/><path d="m515.36 298.41c1.19-2.24-.44-4.27-3.61-4.52l-19.94-1.56c-3.17-.25-6.73 1.38-7.92 3.62-1.19 2.24.44 4.27 3.61 4.52l19.94 1.56c3.17.24 6.74-1.38 7.92-3.62z" fill="#fafc9a" stroke="#c69c6d"/><path d="m512.38 306.32c1.19-2.24-.44-4.27-3.61-4.52l-19.94-1.56c-3.17-.25-6.73 1.38-7.92 3.62-1.19 2.24.44 4.27 3.61 4.52l19.94 1.56c3.17.25 6.73-1.38 7.92-3.62z" fill="#fafc9a" stroke="#c69c6d"/><path d="m510.72 313.92c1.19-2.24-.44-4.27-3.61-4.52l-19.94-1.56c-3.17-.25-6.73 1.38-7.92 3.62-1.19 2.24.44 4.27 3.61 4.52l19.94 1.56c3.17.25 6.74-1.38 7.92-3.62z" fill="#fafc9a" stroke="#c69c6d"/><path d="m518.28 201.4c6.69.7 14.82 2.17 23.73 5.16 5.46 1.83 10.29 3.93 14.45 6.02.98.43 3.64 1.78 5.16 4.82.29.57 2.44 5.06.05 8.63-.88 1.31-2.05 2.02-2.82 2.4 1 1.28 1.36 2.95.96 4.52-1.6 4.23-3.89 6.34-5.46 7.43-7.65 5.29-21.32 2.25-33.14-8.53-.94-.51-7.93-4.49-9.44-12.91-1.17-6.49 1.34-13.19 6.51-17.54z" fill="#f6d2a2" stroke="#000" stroke-width="2"/><path d="m558.86 228.42c-3.37 2.51-7.83 2.22-9.98-.65" fill="none" stroke="#000" stroke-width="2"/><path d="m447.39 379.07c-1.12 0-2.03.74-2.19 1.61-.2 1.09.77 2.37 2.24 2.41 3.64 5.32 7.27 10.64 10.91 15.96 1.94 2.32 5.69 3.68 8.33 3.02s3.21-3.09 1.27-5.41l-12.22-14.57c-.45-.51-1.16-1.19-2.16-1.8-.35-.21-.96-.55-1.75-.83-1.76-.61-3.39-.54-4.43-.39z" fill="#fafc9a" stroke="#c69c6d"/><path d="m452.03 376.24c-.47.16-1.87.72-2.05 1.78s.89 2.38 2.75 3.15c3.95 4.7 7.91 9.39 11.86 14.09 2.13 2.15 5.98 3.2 8.55 2.32 2.58-.87 2.94-3.34.82-5.49l-13.38-13.52c-2.13-2.16-5.97-3.2-8.55-2.33z" fill="#fafc9a" stroke="#c69c6d"/><path d="m456.96 372.1c-.49.19-1.78.77-1.98 1.86-.2 1.1.78 2.43 2.48 3.24 4.27 4.47 8.53 8.94 12.8 13.41 2.21 2.06 6.1 2.96 8.64 1.99s2.81-3.46.6-5.52l-13.9-12.98c-2.22-2.08-6.1-2.97-8.64-2z" fill="#fafc9a" stroke="#c69c6d"/><path d="m460.8 369.45c-.51.3-1.64 1.08-1.62 2.18.01.97.93 1.92 2.29 2.39 5.22 3.78 10.44 7.55 15.66 11.33 2.54 1.65 6.52 1.85 8.85.45s2.16-3.89-.37-5.54l-15.95-10.36c-2.55-1.65-6.53-1.86-8.86-.45z" fill="#fafc9a" stroke="#c69c6d"/><path d="m462.58 365.31c-.46.37-1.47 1.3-1.31 2.38.15.96 1.18 1.77 2.6 2.05 5.69 3.02 11.38 6.04 17.07 9.06 2.74 1.28 6.71.93 8.83-.78s1.61-4.15-1.13-5.44l-17.23-8.06c-2.74-1.27-6.72-.92-8.83.79z" fill="#fafc9a" stroke="#c69c6d"/><path d="m465.98 361.09c-.41.42-1.31 1.46-1.02 2.52.26.93 1.38 1.62 2.83 1.73 6.01 2.33 12.01 4.66 18.02 6.98 2.87.95 6.77.13 8.67-1.81s1.1-4.32-1.77-5.26l-18.06-5.97c-2.87-.95-6.77-.13-8.67 1.81z" fill="#fafc9a" stroke="#c69c6d"/><path d="m466.58 357.98c-1.32 2.16.17 4.29 3.32 4.74l19.8 2.79c3.15.44 6.81-.96 8.13-3.12 1.32-2.16-.17-4.29-3.32-4.74l-19.8-2.79c-3.15-.44-6.81.96-8.13 3.12z" fill="#fafc9a" stroke="#c69c6d"/><path d="m467.93 350.71c-1.26 2.2.29 4.29 3.45 4.65l19.87 2.26c3.16.36 6.78-1.14 8.04-3.34 1.26-2.2-.29-4.29-3.45-4.65l-19.87-2.26c-3.16-.36-6.78 1.15-8.04 3.34z" fill="#fafc9a" stroke="#c69c6d"/><path d="m469.76 342.22c-1.26 2.2.29 4.29 3.45 4.65l19.87 2.26c3.16.36 6.78-1.14 8.04-3.34 1.26-2.2-.29-4.29-3.45-4.65l-19.87-2.26c-3.15-.36-6.77 1.15-8.04 3.34z" fill="#fafc9a" stroke="#c69c6d"/><path d="m471.2 334.13c-1.26 2.2.29 4.29 3.45 4.65l19.87 2.26c3.16.36 6.78-1.14 8.04-3.34 1.26-2.2-.29-4.29-3.45-4.65l-19.87-2.26c-3.16-.36-6.78 1.14-8.04 3.34z" fill="#fafc9a" stroke="#c69c6d"/><path d="m474.46 326.32c-1.26 2.2.29 4.29 3.45 4.65l19.87 2.26c3.16.36 6.78-1.14 8.04-3.34 1.26-2.2-.29-4.29-3.45-4.65l-19.87-2.26c-3.16-.36-6.78 1.14-8.04 3.34z" fill="#fafc9a" stroke="#c69c6d"/><path d="m476.38 318.78c-1.26 2.2.29 4.29 3.45 4.65l19.87 2.26c3.16.36 6.78-1.14 8.04-3.34 1.26-2.2-.29-4.29-3.45-4.65l-19.87-2.26c-3.16-.36-6.77 1.15-8.04 3.34z" fill="#fafc9a" stroke="#c69c6d"/><path d="m962.71 254.49c-1.12-.04-2-.81-2.13-1.68-.16-1.09.85-2.34 2.32-2.33 3.82-5.19 7.64-10.38 11.46-15.57 2.02-2.25 5.82-3.47 8.43-2.72s3.1 3.2 1.07 5.45l-12.73 14.13c-.47.49-1.2 1.15-2.22 1.72-.35.2-.98.52-1.77.76-1.77.55-3.39.42-4.43.24z" fill="#fafc9a" stroke="#c69c6d"/><path d="m967.25 257.48c-.47-.18-1.84-.78-1.98-1.85-.15-1.07.97-2.35 2.86-3.05 4.12-4.55 8.23-9.11 12.35-13.66 2.2-2.07 6.08-2.98 8.63-2.02 2.54.96 2.83 3.44.62 5.52l-13.84 13.04c-2.21 2.07-6.09 2.98-8.64 2.02z" fill="#fafc9a" stroke="#c69c6d"/><path d="m972.03 261.79c-.49-.21-1.75-.83-1.91-1.93s.86-2.4 2.59-3.15c4.42-4.32 8.84-8.63 13.26-12.95 2.28-1.99 6.2-2.74 8.7-1.68s2.69 3.55.41 5.54l-14.35 12.49c-2.28 1.98-6.19 2.74-8.7 1.68z" fill="#fafc9a" stroke="#c69c6d"/><path d="m975.78 264.58c-.49-.32-1.6-1.14-1.54-2.23.05-.97.99-1.88 2.38-2.31 5.35-3.59 10.7-7.18 16.04-10.77 2.59-1.56 6.58-1.62 8.86-.14s2.03 3.97-.57 5.52l-16.31 9.79c-2.59 1.56-6.58 1.62-8.86.14z" fill="#fafc9a" stroke="#c69c6d"/><path d="m977.41 268.77c-.45-.39-1.42-1.35-1.22-2.42.18-.95 1.24-1.73 2.67-1.96 5.79-2.82 11.58-5.64 17.37-8.45 2.78-1.18 6.74-.69 8.8 1.09 2.05 1.78 1.46 4.21-1.32 5.39l-17.5 7.45c-2.79 1.17-6.75.68-8.8-1.1z" fill="#fafc9a" stroke="#c69c6d"/><path d="m980.66 273.11c-.4-.44-1.26-1.51-.93-2.55.29-.92 1.44-1.57 2.89-1.63 6.08-2.12 12.17-4.23 18.25-6.35 2.9-.85 6.78.11 8.61 2.12s.95 4.35-1.95 5.2l-18.26 5.33c-2.91.84-6.78-.11-8.61-2.12z" fill="#fafc9a" stroke="#c69c6d"/><path d="m981.15 276.23c-1.24-2.21.32-4.28 3.49-4.62l19.89-2.09c3.16-.33 6.77 1.2 8.01 3.41 1.24 2.21-.32 4.28-3.49 4.62l-19.89 2.09c-3.16.33-6.76-1.2-8.01-3.41z" fill="#fafc9a" stroke="#c69c6d"/><path d="m982.25 283.55c-1.19-2.24.44-4.27 3.61-4.52l19.94-1.56c3.17-.25 6.73 1.38 7.92 3.62 1.19 2.24-.44 4.27-3.61 4.52l-19.94 1.56c-3.17.25-6.74-1.38-7.92-3.62z" fill="#fafc9a" stroke="#c69c6d"/><path d="m983.78 292.1c-1.19-2.24.44-4.27 3.61-4.52l19.94-1.56c3.17-.25 6.73 1.38 7.92 3.62 1.19 2.24-.44 4.27-3.61 4.52l-19.94 1.56c-3.17.25-6.73-1.38-7.92-3.62z" fill="#fafc9a" stroke="#c69c6d"/><path d="m984.93 300.24c-1.19-2.24.44-4.27 3.61-4.52l19.94-1.56c3.17-.25 6.73 1.38 7.92 3.62 1.19 2.24-.44 4.27-3.61 4.52l-19.94 1.56c-3.17.25-6.73-1.38-7.92-3.62z" fill="#fafc9a" stroke="#c69c6d"/><path d="m987.91 308.15c-1.19-2.24.44-4.27 3.61-4.52l19.94-1.56c3.17-.25 6.73 1.38 7.92 3.62 1.19 2.24-.44 4.27-3.61 4.52l-19.94 1.56c-3.17.25-6.73-1.38-7.92-3.62z" fill="#fafc9a" stroke="#c69c6d"/><path d="m989.57 315.76c-1.19-2.24.44-4.27 3.61-4.52l19.94-1.56c3.17-.25 6.73 1.38 7.92 3.62 1.19 2.24-.44 4.27-3.61 4.52l-19.94 1.56c-3.17.24-6.73-1.39-7.92-3.62z" fill="#fafc9a" stroke="#c69c6d"/><path d="m1046.52 382.2c1.11.09 1.96.89 2.05 1.77.12 1.1-.95 2.3-2.42 2.23-4.04 5.02-8.09 10.04-12.13 15.06-2.12 2.16-5.96 3.22-8.54 2.35-2.58-.86-2.96-3.33-.84-5.49l13.33-13.57c.49-.47 1.25-1.1 2.29-1.62.36-.18 1-.48 1.81-.69 1.8-.47 3.42-.27 4.45-.04z" fill="#fafc9a" stroke="#c69c6d"/><path d="m1042.11 379.01c.46.2 1.8.86 1.9 1.94.1 1.07-1.07 2.3-2.99 2.92-4.31 4.37-8.62 8.74-12.93 13.11-2.29 1.98-6.21 2.72-8.71 1.65s-2.67-3.56-.38-5.54l14.4-12.43c2.3-1.98 6.21-2.72 8.71-1.65z" fill="#fafc9a" stroke="#c69c6d"/><path d="m1037.53 374.5c.48.23 1.71.91 1.82 2.01.11 1.11-.96 2.36-2.73 3.03-4.6 4.12-9.21 8.24-13.81 12.36-2.37 1.88-6.31 2.47-8.77 1.3s-2.53-3.67-.17-5.55l14.88-11.85c2.38-1.88 6.32-2.46 8.78-1.3z" fill="#fafc9a" stroke="#c69c6d"/><path d="m1033.9 371.55c.48.34 1.55 1.21 1.45 2.3-.09.96-1.07 1.84-2.47 2.21-5.5 3.35-11 6.71-16.5 10.06-2.66 1.44-6.64 1.33-8.86-.25-2.21-1.58-1.85-4.05.81-5.49l16.72-9.07c2.65-1.45 6.64-1.34 8.85.24z" fill="#fafc9a" stroke="#c69c6d"/><path d="m1032.46 367.29c.43.41 1.36 1.41 1.12 2.47-.22.94-1.32 1.67-2.76 1.84-5.91 2.56-11.82 5.13-17.73 7.69-2.83 1.06-6.76.4-8.74-1.47s-1.27-4.27 1.56-5.33l17.81-6.68c2.83-1.05 6.76-.39 8.74 1.48z" fill="#fafc9a" stroke="#c69c6d"/><path d="m1029.4 362.82c.38.45 1.19 1.56.82 2.59-.33.91-1.5 1.5-2.95 1.51-6.17 1.85-12.34 3.7-18.51 5.55-2.94.72-6.76-.4-8.51-2.49-1.74-2.09-.76-4.39 2.17-5.11l18.47-4.53c2.94-.73 6.77.39 8.51 2.48z" fill="#fafc9a" stroke="#c69c6d"/><path d="m1029.04 359.67c1.15 2.26-.51 4.27-3.68 4.46l-19.96 1.23c-3.17.19-6.71-1.49-7.86-3.75-1.15-2.26.51-4.27 3.68-4.46l19.96-1.23c3.18-.19 6.71 1.5 7.86 3.75z" fill="#fafc9a" stroke="#c69c6d"/><path d="m1028.27 352.32c1.09 2.29-.62 4.25-3.8 4.36l-19.99.7c-3.18.11-6.67-1.67-7.76-3.96-1.09-2.29.62-4.25 3.8-4.36l19.99-.7c3.18-.11 6.67 1.67 7.76 3.96z" fill="#fafc9a" stroke="#c69c6d"/><path d="m1027.11 343.71c1.09 2.29-.62 4.25-3.8 4.36l-19.99.7c-3.18.11-6.67-1.67-7.76-3.96-1.09-2.29.62-4.25 3.8-4.36l19.99-.7c3.18-.11 6.67 1.67 7.76 3.96z" fill="#fafc9a" stroke="#c69c6d"/><path d="m1026.31 335.53c1.09 2.29-.62 4.25-3.8 4.36l-19.99.7c-3.18.11-6.67-1.67-7.75-3.96-1.09-2.29.62-4.25 3.8-4.36l19.99-.7c3.17-.11 6.66 1.67 7.75 3.96z" fill="#fafc9a" stroke="#c69c6d"/><path d="m1023.67 327.49c1.09 2.29-.62 4.25-3.8 4.36l-19.99.7c-3.18.11-6.67-1.67-7.75-3.96-1.09-2.29.62-4.25 3.8-4.36l19.99-.7c3.17-.11 6.66 1.67 7.75 3.96z" fill="#fafc9a" stroke="#c69c6d"/><path d="m1022.35 319.82c1.09 2.29-.62 4.25-3.8 4.36l-19.99.7c-3.18.11-6.67-1.67-7.76-3.96-1.09-2.29.62-4.25 3.8-4.36l19.99-.7c3.18-.11 6.67 1.68 7.76 3.96z" fill="#fafc9a" stroke="#c69c6d"/><path d="m1072.79 433c.92.56 1.53.58 1.9.5.67-.14.92-.65 1.77-1.5.31-.31 1.48-1.48 1.64-1.4.27.13-2.25 3.5-2.98 6.02-.33 1.12-.49 1.92-.49 1.92-.19.89-.16 1.01-.32 1.58-.3 1.07-.48 1.68-1.14 2.1-.65.42-1.73.63-2.15.3-.67-.51.54-2.18.63-2.31.62-.84 1.37-1.33 1.64-1.5 3.06-1.99 4.59-2.99 5.44-3.81 1.66-1.6 1.94-2.84 3.17-2.9.72-.03 1.35.36 1.77.7" fill="none" stroke="#000"/><path d="m1074.86 437.8c.11-.06.48-.25.95-.21.37.04.78.22.95.49.37.59-.73 1.18-1.16 2.73-.09.33-.34 1.21.07 1.39.37.16 1.08-.33 1.26-.45" fill="none" stroke="#000"/><path d="m1079.59 438.21c-.26.01-.69.05-1.07.28-.56.35-.62.89-.71 1.69-.09.75-.13 1.2.26 1.56.02.02.49.43 1.02.36.42-.06.65-.39.9-.73 0 0 .24-.33.34-.72.01-.04.03-.15.05-.24.01-.07.02-.14.02-.14s0 0 0-.01c.01-.1-.08-.75-.09-.96-.03-.42.09-.54-.07-.77-.04-.05-.12-.16-.24-.17-.17-.02-.36.16-.43.32s.01.21.05.52c.06.43-.06.58.12.75.06.06.12.09.24.15.27.14.52.2.69.22" fill="none" stroke="#000"/><path d="m1083.79 434.61c-.05.13-.26.64-.31.77-.58 1.46-.58 1.46-.64 1.6-.6 1.4-.75 1.18-.95 1.92-.26.95.06 1.07-.31 1.88-.17.38-.41.72-.21.9.16.15.56.16.78.13.14-.01.26-.05.33-.07" fill="none" stroke="#000"/><path d="m1082.22 435.9c.13.06.98.45 1.71.17.09-.04.2-.09.31-.17" fill="none" stroke="#000"/><path d="m1083.55 439.13c.02.44-.02.78-.07 1.01-.1.51-.26.78-.14 1.2.03.13.13.5.4.55.22.04.45-.15.55-.22.13-.1.19-.2.28-.34.34-.5.37-.46.45-.62.22-.45.05-.94-.02-.94-.09 0-.06.82-.43 2.2-.24.91-.51 1.5-1.12 1.82-.13.07-.42.22-.66.13-.22-.08-.34-.33-.31-.62" fill="none" stroke="#000"/><path d="m1087.21 439.25c-.25-.2-.8-.18-1.12.02-.12.07-.3.23-.31 1.41-.01 1.14.16 1.25.26 1.29.26.11.68-.02.9-.21.16-.14.21-.3.26-.49.07-.23.02-.29.05-.62.04-.47.14-.53.12-.88-.01-.26-.02-.41-.16-.52z" fill="none" stroke="#000"/><path d="m1087.38 440.67c0-.19 0-.22 0-.22s.01.11.02.68c.01.34.01.44.12.55.01.01.17.15.4.15.22 0 .43-.13.52-.32" fill="none" stroke="#000"/></g></svg>